<svg width="399" height="351" viewBox="0 0 399 351" fill="none" xmlns="http://www.w3.org/2000/svg">
<path d="M28 118H274V351H28V118Z" fill="#F6BD72"/>
<path d="M0 0H399V341H0V0Z" fill="#1C1717"/>
<path d="M203.972 200.023H203.957L203.941 200.023C203.625 200.043 203.307 199.995 203.01 199.883C202.713 199.771 202.444 199.596 202.219 199.372C201.995 199.148 201.821 198.878 201.708 198.581C201.596 198.284 201.548 197.967 201.568 197.65L201.569 197.634V197.619V171.535V171.519L201.568 171.504C201.548 171.187 201.596 170.869 201.708 170.573C201.821 170.276 201.995 170.006 202.219 169.782C202.444 169.557 202.713 169.383 203.01 169.271C203.307 169.158 203.625 169.11 203.941 169.13L203.957 169.131H203.972H250.343H250.359L250.374 169.13C250.691 169.11 251.008 169.158 251.305 169.271C251.602 169.383 251.872 169.557 252.096 169.782C252.321 170.006 252.495 170.276 252.607 170.573C252.72 170.869 252.767 171.187 252.748 171.504L252.747 171.519V171.535V197.619V197.634L252.748 197.65C252.767 197.967 252.72 198.284 252.607 198.581C252.495 198.878 252.321 199.148 252.096 199.372C251.872 199.596 251.602 199.771 251.305 199.883C251.009 199.995 250.691 200.043 250.374 200.023L250.359 200.023H250.343H203.972ZM206.876 173.938H206.376L206.376 174.438L206.373 194.725L206.373 195.225H206.873H247.453H247.953V194.725V174.438V173.938H247.453H206.876Z" fill="#DB953C" stroke="#1C1717"/>
<path d="M148.907 162.343H125.72C125.082 162.343 124.471 162.09 124.02 161.639C123.569 161.188 123.316 160.577 123.316 159.94C123.316 159.302 123.569 158.691 124.02 158.24C124.471 157.789 125.082 157.536 125.72 157.536H148.907C149.544 157.536 150.155 157.789 150.606 158.24C151.057 158.691 151.31 159.302 151.31 159.94C151.31 160.577 151.057 161.188 150.606 161.639C150.155 162.09 149.544 162.343 148.907 162.343Z" fill="#DB953C" stroke="#1C1717"/>
<path d="M183.685 162.343H160.498C159.861 162.343 159.25 162.09 158.799 161.639C158.348 161.188 158.095 160.577 158.095 159.94C158.095 159.302 158.348 158.691 158.799 158.24C159.25 157.789 159.861 157.536 160.498 157.536H183.685C184.323 157.536 184.934 157.789 185.385 158.24C185.836 158.691 186.089 159.302 186.089 159.94C186.089 160.577 185.836 161.188 185.385 161.639C184.934 162.09 184.323 162.343 183.685 162.343Z" fill="#DB953C" stroke="#1C1717"/>
<path d="M163.399 173.938H125.72C125.082 173.938 124.471 173.685 124.02 173.234C123.569 172.783 123.316 172.172 123.316 171.535C123.316 170.897 123.569 170.286 124.02 169.835C124.471 169.384 125.082 169.131 125.72 169.131H163.399C164.036 169.131 164.648 169.384 165.099 169.835C165.549 170.286 165.803 170.897 165.803 171.535C165.803 172.172 165.549 172.783 165.099 173.234C164.648 173.685 164.036 173.938 163.399 173.938Z" fill="#DB953C" stroke="#1C1717"/>
<path d="M174.997 169.141H183.686H183.692C184.33 169.141 184.941 169.394 185.392 169.845C185.843 170.296 186.096 170.907 186.096 171.544C186.096 172.182 185.843 172.793 185.392 173.244C184.941 173.695 184.33 173.948 183.692 173.948H174.997C174.36 173.948 173.749 173.695 173.298 173.244C172.847 172.793 172.594 172.182 172.594 171.544C172.594 170.907 172.847 170.296 173.298 169.845C173.749 169.394 174.36 169.141 174.997 169.141Z" fill="#DB953C" stroke="#1C1717"/>
<path d="M282.113 132.997L282.123 133.011L282.134 133.023C283.067 134.126 283.769 135.406 284.198 136.785C284.626 138.165 284.772 139.617 284.628 141.055L284.628 141.058L275.918 234.079C275.512 236.717 274.169 239.121 272.136 240.851C270.099 242.584 267.505 243.524 264.831 243.5H264.826H263.696L129.834 228.433L129.834 228.433L129.825 228.432C127.106 228.179 124.584 226.905 122.767 224.866C120.95 222.827 119.974 220.176 120.035 217.446L120.043 217.065L119.678 216.956C117.386 216.271 115.376 214.866 113.945 212.95C112.514 211.034 111.737 208.708 111.73 206.316V113.572C111.736 110.632 112.907 107.814 114.986 105.735C117.065 103.656 119.883 102.486 122.823 102.48H256.144C259.084 102.486 261.902 103.656 263.981 105.735L264.334 105.382L263.981 105.735C266.06 107.814 267.23 110.632 267.236 113.573V127.509V127.952L267.676 128.006L274.632 128.848L274.642 128.849L274.652 128.85C276.12 128.967 277.545 129.398 278.833 130.114C280.12 130.829 281.238 131.813 282.113 132.997ZM117.038 121.76H116.538V122.26V139.65V140.15H117.038H261.938H262.438V139.65V122.26V121.76H261.938H117.038ZM122.845 107.268H122.742L122.717 107.279C121.088 107.312 119.533 107.974 118.38 109.13C117.203 110.31 116.54 111.907 116.538 113.574V113.575V116.479V116.979H117.038H261.948H262.448V116.479V113.575C262.448 111.902 261.784 110.298 260.601 109.115C259.418 107.932 257.814 107.268 256.141 107.268H122.845ZM117.038 144.954H116.538V145.454V206.317C116.538 207.985 117.199 209.586 118.376 210.768C119.554 211.95 121.152 212.618 122.82 212.624H122.822H256.131C257.804 212.624 259.408 211.96 260.591 210.777C261.774 209.594 262.438 207.99 262.438 206.317V145.454V144.954H261.938H117.038ZM271.131 233.03L271.131 233.025L279.815 140.003C279.925 139.177 279.872 138.337 279.658 137.531C279.444 136.723 279.074 135.966 278.567 135.301C278.087 134.645 277.466 134.104 276.75 133.718C276.035 133.333 275.243 133.112 274.432 133.072L267.776 132.492L267.233 132.445V132.991V206.316C267.227 209.256 266.057 212.074 263.977 214.153C261.898 216.233 259.08 217.403 256.14 217.409H125.426H124.871L124.929 217.961C125.081 219.412 125.727 220.766 126.759 221.797C127.791 222.827 129.145 223.472 130.595 223.623C130.596 223.623 130.597 223.623 130.598 223.623L264.202 238.692L264.21 238.693C265.878 238.854 267.541 238.348 268.837 237.288C270.134 236.227 270.958 234.696 271.131 233.03Z" fill="#DB953C" stroke="#1C1717"/>
</svg>
