<svg width="55" height="55" viewBox="0 0 55 55" fill="none" xmlns="http://www.w3.org/2000/svg">
<g clip-path="url(#clip0)">
<rect width="55" height="55" fill="none"/>
<path d="M39.2878 19.2357V19.2359V26.0029C39.2878 26.1851 39.2153 26.36 39.0864 26.4889C38.9577 26.6176 38.7831 26.69 38.601 26.6902C38.4198 26.6891 38.2464 26.6163 38.1186 26.4879C37.9906 26.3592 37.9188 26.1851 37.9188 26.0037V20.5878V20.2271L37.581 20.3537L28.3489 23.8159L28.1867 23.8767V24.05V36.436V36.7967L28.5244 36.6701L37.7541 33.2104L37.9163 33.1496V32.9763V30.3764C37.9224 30.199 37.997 30.0307 38.1244 29.9069C38.2527 29.7823 38.4244 29.7126 38.6033 29.7126C38.7821 29.7126 38.9538 29.7823 39.0821 29.9069C39.2095 30.0306 39.2841 30.1989 39.2902 30.3764V33.6257C39.2902 33.7656 39.2475 33.9022 39.1678 34.0172C39.0881 34.1322 38.9752 34.2201 38.8442 34.2692L27.7374 38.434L27.7357 38.4346C27.5817 38.4937 27.4113 38.4937 27.2573 38.4346L27.2556 38.434L16.1456 34.2676L16.1455 34.2676C16.0145 34.2185 15.9016 34.1306 15.8219 34.0157C15.7422 33.9007 15.6995 33.7641 15.6996 33.6242V33.6241V26.628H15.6997L15.6995 26.6207C15.6968 26.5287 15.7126 26.4372 15.7459 26.3515C15.7792 26.2658 15.8294 26.1877 15.8934 26.1217C15.9575 26.0557 16.0342 26.0033 16.1189 25.9675C16.2036 25.9316 16.2946 25.9132 16.3865 25.9132C16.4785 25.9132 16.5695 25.9316 16.6542 25.9675C16.7389 26.0033 16.8156 26.0557 16.8796 26.1217C16.9437 26.1877 16.9939 26.2658 17.0272 26.3515C17.0605 26.4372 17.0763 26.5288 17.0736 26.6207L17.0735 26.6207V26.628V32.9747V33.148L17.2357 33.2088L26.4678 36.6709L26.8056 36.7976V36.4368V24.0508V23.8775L26.6433 23.8167L17.4112 20.3546L17.0735 20.2279V20.5886V22.2447H17.0734L17.0736 22.252C17.0763 22.3439 17.0605 22.4355 17.0272 22.5212C16.9939 22.6069 16.9437 22.685 16.8796 22.751C16.8156 22.817 16.7389 22.8694 16.6542 22.9052C16.5695 22.9411 16.4785 22.9595 16.3865 22.9595C16.2946 22.9595 16.2036 22.9411 16.1189 22.9052C16.0342 22.8694 15.9575 22.817 15.8934 22.751C15.8294 22.685 15.7792 22.6069 15.7459 22.5212C15.7126 22.4355 15.6968 22.3439 15.6995 22.252L15.6996 22.252V22.2447V19.2359C15.6996 19.096 15.7423 18.9594 15.822 18.8444C15.9017 18.7294 16.0146 18.6415 16.1456 18.5923L27.2523 14.4276L27.2524 14.4276C27.408 14.3692 27.5794 14.3692 27.7349 14.4276L27.735 14.4276L38.8418 18.5923L38.8419 18.5924C38.9729 18.6414 39.0858 18.7293 39.1655 18.8443C39.2452 18.9593 39.2878 19.0959 39.2878 19.2357ZM27.4067 22.6344L27.4945 22.6674L27.5822 22.6345L36.0262 19.47L36.6509 19.2359L36.0262 19.0018L27.5822 15.8373L27.4945 15.8044L27.4067 15.8373L18.9692 19.0018L18.345 19.2359L18.9692 19.47L27.4067 22.6344Z" fill="#DB953C" stroke="#DB953C" stroke-width="0.5"/>
<path d="M26.8173 9.35199V9.14752L26.6169 9.10696C25.5298 8.88694 24.5632 8.2709 23.9048 7.3784C23.2464 6.48591 22.943 5.38062 23.0535 4.27704C23.1641 3.17347 23.6807 2.15033 24.5031 1.40619C25.3255 0.662054 26.3951 0.25 27.5042 0.25C28.6133 0.25 29.6828 0.662054 30.5052 1.40619C31.3276 2.15033 31.8443 3.17347 31.9548 4.27704C32.0654 5.38062 31.762 6.48591 31.1036 7.3784C30.4451 8.2709 29.4786 8.88694 28.3915 9.10696L28.1911 9.14752V9.35199V20.0811H28.191L28.1912 20.0884C28.1939 20.1803 28.1781 20.2718 28.1448 20.3575C28.1115 20.4432 28.0613 20.5214 27.9973 20.5874C27.9332 20.6533 27.8566 20.7058 27.7719 20.7416C27.6872 20.7774 27.5961 20.7959 27.5042 20.7959C27.4122 20.7959 27.3212 20.7774 27.2365 20.7416C27.1518 20.7058 27.0751 20.6533 27.0111 20.5874C26.947 20.5214 26.8969 20.4432 26.8635 20.3575C26.8302 20.2718 26.8145 20.1803 26.8172 20.0884L26.8173 20.0884V20.0811V9.35199ZM24.4055 4.72242V4.72263C24.4055 5.33557 24.5873 5.93475 24.9278 6.44439C25.2683 6.95403 25.7523 7.35125 26.3186 7.58581C26.8849 7.82037 27.508 7.88175 28.1092 7.76217C28.7104 7.64259 29.2626 7.34743 29.696 6.91402C30.1294 6.4806 30.4245 5.9284 30.5441 5.32723C30.6637 4.72607 30.6023 4.10295 30.3678 3.53667C30.1332 2.97038 29.736 2.48637 29.2263 2.14584C28.7461 1.82496 28.1864 1.64505 27.6105 1.62536L27.6078 1.6226L27.5034 1.62274C26.6819 1.62391 25.8943 1.95091 25.3135 2.53201C24.7327 3.11311 24.4062 3.90085 24.4055 4.72242Z" fill="#DB953C" stroke="#DB953C" stroke-width="0.5"/>
<path d="M28.1911 45.6939V45.8984L28.3915 45.9389C29.4786 46.1589 30.4451 46.775 31.1036 47.6675C31.762 48.56 32.0654 49.6653 31.9548 50.7688C31.8443 51.8724 31.3276 52.8955 30.5052 53.6397C29.6828 54.3838 28.6133 54.7959 27.5042 54.7959C26.3951 54.7959 25.3255 54.3838 24.5031 53.6397C23.6807 52.8955 23.1641 51.8724 23.0535 50.7688C22.943 49.6653 23.2464 48.56 23.9048 47.6675C24.5632 46.775 25.5298 46.1589 26.6169 45.9389L26.8173 45.8984V45.6939V38.9648H26.8174L26.8172 38.9575C26.8145 38.8655 26.8302 38.774 26.8635 38.6883C26.8969 38.6026 26.947 38.5245 27.0111 38.4585C27.0752 38.3925 27.1518 38.3401 27.2365 38.3043C27.3212 38.2685 27.4122 38.25 27.5042 38.25C27.5961 38.25 27.6872 38.2684 27.7719 38.3043C27.8566 38.3401 27.9332 38.3925 27.9973 38.4585C28.0613 38.5245 28.1115 38.6026 28.1448 38.6883C28.1781 38.7741 28.1939 38.8656 28.1912 38.9575L28.1911 38.9575V38.9648V45.6939ZM27.5038 53.4223H27.5041C28.3256 53.4214 29.1133 53.0946 29.6942 52.5137C30.2751 51.9327 30.6019 51.1451 30.6029 50.3235V50.3232C30.6029 49.7103 30.4211 49.1111 30.0806 48.6015C29.74 48.0918 29.256 47.6946 28.6897 47.4601C28.1235 47.2255 27.5003 47.1641 26.8992 47.2837C26.298 47.4033 25.7458 47.6985 25.3124 48.1319C24.879 48.5653 24.5838 49.1175 24.4642 49.7186C24.3447 50.3198 24.406 50.9429 24.6406 51.5092C24.8752 52.0755 25.2724 52.5595 25.782 52.9C26.2917 53.2406 26.8908 53.4223 27.5038 53.4223Z" fill="#DB953C" stroke="#DB953C" stroke-width="0.5"/>
<path d="M45.6939 27.7459H45.8981L45.9388 27.5458C46.1449 26.5345 46.6938 25.6253 47.4927 24.9719C48.2915 24.3185 49.2914 23.9609 50.3234 23.9595C51.1702 23.9594 51.9997 24.1997 52.7153 24.6523C53.431 25.105 54.0035 25.7516 54.3663 26.5168C54.7291 27.282 54.8672 28.1345 54.7646 28.9751C54.6621 29.8157 54.323 30.61 53.7868 31.2655C53.2507 31.921 52.5395 32.4109 51.736 32.6782C50.9324 32.9455 50.0695 32.9793 49.2475 32.7755C48.4255 32.5718 47.6782 32.1389 47.0925 31.5272C46.5069 30.9156 46.1068 30.1502 45.9389 29.3202L45.8984 29.1197H45.6939H38.9648V29.1196L38.9575 29.1198C38.8656 29.1225 38.7741 29.1068 38.6883 29.0734C38.6026 29.0401 38.5245 28.9899 38.4585 28.9259C38.3925 28.8618 38.3401 28.7852 38.3043 28.7005C38.2685 28.6158 38.25 28.5248 38.25 28.4328C38.25 28.3408 38.2684 28.2498 38.3043 28.1651C38.3401 28.0804 38.3925 28.0038 38.4585 27.9397C38.5245 27.8757 38.6026 27.8255 38.6883 27.7922C38.7741 27.7588 38.8656 27.7431 38.9575 27.7458L38.9575 27.7459H38.9648H45.6939ZM50.3232 31.5323H50.5732V31.5179C51.3026 31.4582 51.9905 31.142 52.5121 30.6212C53.0929 30.0412 53.4202 29.2546 53.4223 28.4338V28.4332C53.4223 27.8203 53.2406 27.2211 52.9 26.7114C52.5595 26.2018 52.0755 25.8046 51.5092 25.57C50.9429 25.3355 50.3198 25.2741 49.7186 25.3937C49.1175 25.5133 48.5653 25.8084 48.1319 26.2418C47.6985 26.6752 47.4033 27.2274 47.2837 27.8286C47.1641 28.4298 47.2255 29.0529 47.4601 29.6192C47.6946 30.1855 48.0918 30.6695 48.6015 31.01C49.1111 31.3505 49.7103 31.5323 50.3232 31.5323Z" fill="#DB953C" stroke="#DB953C" stroke-width="0.5"/>
<path d="M7.82171 28.4289V28.4292C7.82079 29.2509 7.49389 30.0387 6.91276 30.6196C6.33178 31.2005 5.54414 31.5271 4.72263 31.528L7.82171 28.4289ZM7.82171 28.4289C7.82171 27.816 7.63996 27.2168 7.29943 26.7071C6.95889 26.1975 6.47488 25.8003 5.9086 25.5657C5.34232 25.3312 4.71919 25.2698 4.11803 25.3894C3.51687 25.5089 2.96467 25.8041 2.53125 26.2375C2.09784 26.6709 1.80268 27.2231 1.6831 27.8243C1.56352 28.4255 1.62489 29.0486 1.85945 29.6149C2.09402 30.1811 2.49123 30.6652 3.00087 31.0057C3.51029 31.3461 4.10917 31.5278 4.72183 31.528L7.82171 28.4289ZM16.0884 29.1155L16.0884 29.1154H16.0811H9.35199V29.3654L9.10696 29.3158C8.88694 30.4029 8.2709 31.3694 7.3784 32.0279C6.48591 32.6863 5.38062 32.9897 4.27704 32.8792C3.17347 32.7686 2.15033 32.252 1.40619 31.4296C0.662054 30.6071 0.25 29.5376 0.25 28.4285C0.25 27.3194 0.662054 26.2499 1.40619 25.4274C2.15033 24.605 3.17347 24.0884 4.27704 23.9779C5.38062 23.8673 6.48591 24.1707 7.3784 24.8291C8.2709 25.4876 8.88694 26.4541 9.10696 27.5412L9.14752 27.7416H9.35199H16.0811V27.7417L16.0884 27.7415C16.1803 27.7388 16.2718 27.7545 16.3575 27.7879C16.4432 27.8212 16.5214 27.8713 16.5874 27.9354C16.6533 27.9995 16.7058 28.0761 16.7416 28.1608C16.7774 28.2455 16.7959 28.3365 16.7959 28.4285C16.7959 28.5205 16.7774 28.6115 16.7416 28.6962C16.7058 28.7809 16.6533 28.8575 16.5874 28.9216C16.5214 28.9857 16.4432 29.0358 16.3575 29.0691C16.2718 29.1025 16.1803 29.1182 16.0884 29.1155Z" fill="#DB953C" stroke="#DB953C" stroke-width="0.5"/>
</g>
<defs>
<clipPath id="clip0">
<rect width="55" height="55" fill="white"/>
</clipPath>
</defs>
</svg>
