<svg width="55" height="55" viewBox="0 0 55 55" fill="none" xmlns="http://www.w3.org/2000/svg">
<rect width="55" height="55" fill="none"/>
<mask id="path-2-inside-1" fill="white">
<path d="M5.58705 9.52259L14.5345 4.69043L20.4991 1.46931L22.1673 0.575152C22.9627 0.173159 23.8818 0.0909093 24.7359 0.345289C25.59 0.599669 26.3144 1.17138 26.7602 1.94304L36.5446 20.0171H48.3538C48.7067 20.0156 49.0565 20.084 49.3829 20.2183C49.7093 20.3527 50.0058 20.5504 50.2554 20.8C50.505 21.0495 50.7027 21.3461 50.837 21.6725C50.9714 21.9988 51.0398 22.3486 51.0382 22.7016V51.9948C51.0398 52.3478 50.9714 52.6976 50.837 53.0239C50.7027 53.3503 50.505 53.6469 50.2554 53.8964C50.0058 54.146 49.7093 54.3437 49.3829 54.4781C49.0565 54.6124 48.7067 54.6808 48.3538 54.6793H10.5955C10.2427 54.6807 9.89299 54.6122 9.56672 54.4778C9.24045 54.3434 8.94402 54.1457 8.69455 53.8961C8.44507 53.6465 8.24748 53.35 8.11318 53.0237C7.97888 52.6974 7.91053 52.3477 7.91207 51.9948V45.1341H6.77862C6.63738 45.1351 6.49734 45.1081 6.36664 45.0545C6.23595 45.0009 6.11721 44.9219 6.01733 44.822C5.91745 44.7221 5.83842 44.6034 5.78485 44.4727C5.73127 44.342 5.70421 44.202 5.70524 44.0607V36.2467C5.70395 36.1054 5.73079 35.9652 5.78419 35.8344C5.83759 35.7035 5.91649 35.5846 6.01629 35.4845C6.1161 35.3844 6.23481 35.3052 6.36552 35.2515C6.49623 35.1977 6.63633 35.1705 6.77765 35.1714H7.91207V27.4775C7.92035 26.8707 8.12983 26.2837 8.50766 25.8088C8.88549 25.3338 9.41029 24.9977 9.99974 24.8532L4.21239 14.1164C3.99906 13.725 3.86538 13.2951 3.81906 12.8517C3.77273 12.4084 3.81469 11.9602 3.94249 11.5331C4.0703 11.106 4.28142 10.7084 4.56369 10.3633C4.84595 10.0183 5.19377 9.73253 5.58705 9.52259V9.52259ZM24.8518 2.9612C24.6829 2.67141 24.4113 2.45568 24.0908 2.3568C23.7703 2.25793 23.4243 2.28313 23.1216 2.42742L21.4514 3.32255L33.0833 24.7941H36.6619L24.8518 2.9612ZM17.3952 5.52744L27.7716 24.7941H30.6972L19.6021 4.33296L17.3952 5.52744ZM48.3538 22.1097H37.6171L39.0489 24.734H48.3548C48.5556 24.7244 48.7567 24.7447 48.9515 24.7941V22.6463C48.9381 22.4979 48.869 22.3601 48.7581 22.2606C48.6472 22.161 48.5028 22.1071 48.3538 22.1097V22.1097ZM7.85104 37.261V42.9873H14.1121C14.2534 42.9884 14.3934 42.9613 14.5241 42.9077C14.6548 42.8541 14.7735 42.7751 14.8734 42.6752C14.9733 42.5754 15.0523 42.4566 15.1059 42.3259C15.1595 42.1952 15.1865 42.0552 15.1855 41.914V38.2714C15.1855 38.1308 15.1577 37.9916 15.1036 37.8618C15.0496 37.732 14.9704 37.6142 14.8706 37.5152C14.7709 37.4161 14.6525 37.3378 14.5223 37.2847C14.3921 37.2316 14.2527 37.2048 14.1121 37.2058H7.85104V37.261ZM14.1121 35.1714C14.9488 35.177 15.7495 35.5118 16.3411 36.1034C16.9328 36.695 17.2676 37.4958 17.2732 38.3325V41.9711C17.2681 42.8081 16.9335 43.6094 16.3418 44.2014C15.7502 44.7934 14.9491 45.1285 14.1121 45.1341H9.99877V51.9939C9.99903 52.1521 10.062 52.3037 10.1738 52.4156C10.2857 52.5274 10.4373 52.5904 10.5955 52.5906H48.3538C48.512 52.5904 48.6636 52.5274 48.7755 52.4156C48.8873 52.3037 48.9503 52.1521 48.9506 51.9939V27.4775C48.9503 27.3193 48.8873 27.1677 48.7755 27.0558C48.6636 26.944 48.512 26.881 48.3538 26.8808H10.5955C10.4373 26.881 10.2857 26.944 10.1738 27.0558C10.062 27.1677 9.99903 27.3193 9.99877 27.4775V35.1714H14.1121ZM6.06174 13.1021L12.3848 24.7941H25.3884L15.5459 6.54076L6.59843 11.3729C6.44639 11.4477 6.31119 11.5527 6.20109 11.6815C6.09099 11.8103 6.0083 11.9602 5.95808 12.1221C5.90785 12.2839 5.89114 12.4543 5.90896 12.6228C5.92678 12.7913 5.97877 12.9544 6.06174 13.1021V13.1021Z"/>
</mask>
<path d="M5.58705 9.52259L14.5345 4.69043L20.4991 1.46931L22.1673 0.575152C22.9627 0.173159 23.8818 0.0909093 24.7359 0.345289C25.59 0.599669 26.3144 1.17138 26.7602 1.94304L36.5446 20.0171H48.3538C48.7067 20.0156 49.0565 20.084 49.3829 20.2183C49.7093 20.3527 50.0058 20.5504 50.2554 20.8C50.505 21.0495 50.7027 21.3461 50.837 21.6725C50.9714 21.9988 51.0398 22.3486 51.0382 22.7016V51.9948C51.0398 52.3478 50.9714 52.6976 50.837 53.0239C50.7027 53.3503 50.505 53.6469 50.2554 53.8964C50.0058 54.146 49.7093 54.3437 49.3829 54.4781C49.0565 54.6124 48.7067 54.6808 48.3538 54.6793H10.5955C10.2427 54.6807 9.89299 54.6122 9.56672 54.4778C9.24045 54.3434 8.94402 54.1457 8.69455 53.8961C8.44507 53.6465 8.24748 53.35 8.11318 53.0237C7.97888 52.6974 7.91053 52.3477 7.91207 51.9948V45.1341H6.77862C6.63738 45.1351 6.49734 45.1081 6.36664 45.0545C6.23595 45.0009 6.11721 44.9219 6.01733 44.822C5.91745 44.7221 5.83842 44.6034 5.78485 44.4727C5.73127 44.342 5.70421 44.202 5.70524 44.0607V36.2467C5.70395 36.1054 5.73079 35.9652 5.78419 35.8344C5.83759 35.7035 5.91649 35.5846 6.01629 35.4845C6.1161 35.3844 6.23481 35.3052 6.36552 35.2515C6.49623 35.1977 6.63633 35.1705 6.77765 35.1714H7.91207V27.4775C7.92035 26.8707 8.12983 26.2837 8.50766 25.8088C8.88549 25.3338 9.41029 24.9977 9.99974 24.8532L4.21239 14.1164C3.99906 13.725 3.86538 13.2951 3.81906 12.8517C3.77273 12.4084 3.81469 11.9602 3.94249 11.5331C4.0703 11.106 4.28142 10.7084 4.56369 10.3633C4.84595 10.0183 5.19377 9.73253 5.58705 9.52259V9.52259ZM24.8518 2.9612C24.6829 2.67141 24.4113 2.45568 24.0908 2.3568C23.7703 2.25793 23.4243 2.28313 23.1216 2.42742L21.4514 3.32255L33.0833 24.7941H36.6619L24.8518 2.9612ZM17.3952 5.52744L27.7716 24.7941H30.6972L19.6021 4.33296L17.3952 5.52744ZM48.3538 22.1097H37.6171L39.0489 24.734H48.3548C48.5556 24.7244 48.7567 24.7447 48.9515 24.7941V22.6463C48.9381 22.4979 48.869 22.3601 48.7581 22.2606C48.6472 22.161 48.5028 22.1071 48.3538 22.1097V22.1097ZM7.85104 37.261V42.9873H14.1121C14.2534 42.9884 14.3934 42.9613 14.5241 42.9077C14.6548 42.8541 14.7735 42.7751 14.8734 42.6752C14.9733 42.5754 15.0523 42.4566 15.1059 42.3259C15.1595 42.1952 15.1865 42.0552 15.1855 41.914V38.2714C15.1855 38.1308 15.1577 37.9916 15.1036 37.8618C15.0496 37.732 14.9704 37.6142 14.8706 37.5152C14.7709 37.4161 14.6525 37.3378 14.5223 37.2847C14.3921 37.2316 14.2527 37.2048 14.1121 37.2058H7.85104V37.261ZM14.1121 35.1714C14.9488 35.177 15.7495 35.5118 16.3411 36.1034C16.9328 36.695 17.2676 37.4958 17.2732 38.3325V41.9711C17.2681 42.8081 16.9335 43.6094 16.3418 44.2014C15.7502 44.7934 14.9491 45.1285 14.1121 45.1341H9.99877V51.9939C9.99903 52.1521 10.062 52.3037 10.1738 52.4156C10.2857 52.5274 10.4373 52.5904 10.5955 52.5906H48.3538C48.512 52.5904 48.6636 52.5274 48.7755 52.4156C48.8873 52.3037 48.9503 52.1521 48.9506 51.9939V27.4775C48.9503 27.3193 48.8873 27.1677 48.7755 27.0558C48.6636 26.944 48.512 26.881 48.3538 26.8808H10.5955C10.4373 26.881 10.2857 26.944 10.1738 27.0558C10.062 27.1677 9.99903 27.3193 9.99877 27.4775V35.1714H14.1121ZM6.06174 13.1021L12.3848 24.7941H25.3884L15.5459 6.54076L6.59843 11.3729C6.44639 11.4477 6.31119 11.5527 6.20109 11.6815C6.09099 11.8103 6.0083 11.9602 5.95808 12.1221C5.90785 12.2839 5.89114 12.4543 5.90896 12.6228C5.92678 12.7913 5.97877 12.9544 6.06174 13.1021V13.1021Z" fill="#DB953C" stroke="#DB953C" stroke-width="0.2" mask="url(#path-2-inside-1)"/>
<path d="M13.9694 17.9496L13.9694 17.9496L13.4327 18.248L13.4322 18.2482C13.0395 18.4724 12.5962 18.5932 12.1441 18.5991C11.6403 18.5979 11.1461 18.4613 10.7132 18.2036C10.2803 17.946 9.9246 17.5768 9.68323 17.1346L9.0276 15.8825C8.68841 15.233 8.60471 14.4801 8.79296 13.772C9.01744 13.0737 9.49942 12.4871 10.141 12.1315L10.1167 12.0877L10.141 12.1314L10.6769 11.8335C11.3259 11.5046 12.0763 11.4367 12.7738 11.6438C13.4713 11.8509 14.063 12.3172 14.4275 12.9469L15.0828 14.1986C15.422 14.848 15.5057 15.601 15.3174 16.3091C15.093 17.0073 14.611 17.5939 13.9694 17.9496ZM10.687 14.6364C10.6983 14.7368 10.7335 14.833 10.7896 14.9169L11.4438 16.1664C11.4439 16.1665 11.4439 16.1666 11.444 16.1668C11.4889 16.2559 11.5513 16.3352 11.6274 16.3998C11.7036 16.4645 11.792 16.5133 11.8874 16.5431C11.9829 16.5729 12.0833 16.5833 12.1828 16.5735C12.2823 16.5637 12.3788 16.534 12.4666 16.4862L12.467 16.486L13.0017 16.1888C13.0949 16.1476 13.1777 16.0861 13.244 16.0087C13.3102 15.9314 13.3582 15.8402 13.3845 15.7419C13.4208 15.6474 13.4339 15.5457 13.4227 15.4451C13.4114 15.3445 13.3761 15.2481 13.3198 15.1641L12.6655 13.9144C12.6655 13.9143 12.6654 13.9142 12.6654 13.9141C12.6052 13.7963 12.5131 13.6978 12.3996 13.6298C12.2867 13.5622 12.1572 13.5275 12.0256 13.5296C11.8961 13.5202 11.7661 13.5422 11.6469 13.5938L11.6468 13.5936L11.6424 13.596L11.1078 13.8932C11.0146 13.9344 10.9317 13.9959 10.8654 14.0733C10.7992 14.1507 10.7512 14.2418 10.7249 14.3402C10.6888 14.4344 10.6758 14.536 10.687 14.6364Z" fill="#DB953C" stroke="#DB953C" stroke-width="0.1"/>
<path d="M38.9515 43.8315C38.6276 44.1554 38.6276 44.6805 38.9515 45.0044C39.2754 45.3283 39.8006 45.3283 40.1245 45.0044C40.4484 44.6805 40.4484 44.1554 40.1245 43.8315C39.8006 43.5076 39.2754 43.5076 38.9515 43.8315Z" fill="#DB953C"/>
<path d="M36.4339 46.5495C37.3674 46.968 38.3762 47.1927 39.3991 47.21C40.41 47.192 41.4065 46.9665 42.3267 46.5477C42.6923 46.3832 43.0027 46.1167 43.2205 45.7802C43.4384 45.4436 43.5545 45.0514 43.5549 44.6505L43.5615 41.7791C43.5616 41.3617 43.4357 40.9541 43.2004 40.6094C42.965 40.2647 42.6311 39.9991 42.2424 39.8473C41.9969 39.7536 41.7487 39.6683 41.5004 39.5962L41.4995 33.2809C41.4996 33.2125 41.4862 33.1447 41.46 33.0815C41.4337 33.0183 41.3953 32.9609 41.3468 32.9127L39.7363 31.3022C39.6392 31.2051 39.5074 31.1505 39.37 31.1505C39.2326 31.1505 39.1009 31.2051 39.0037 31.3022L37.3914 32.9146C37.2955 33.012 37.2419 33.1433 37.2425 33.28C37.243 33.4168 37.2975 33.5477 37.3942 33.6444L38.05 34.3002L37.3942 34.956C37.3439 35.004 37.3038 35.0616 37.2763 35.1254C37.2488 35.1892 37.2344 35.2579 37.2339 35.3274C37.2335 35.3969 37.247 35.4657 37.2738 35.5299C37.3005 35.594 37.3399 35.6521 37.3895 35.7008L38.0453 36.3566L37.3895 37.0124C37.2924 37.1095 37.2378 37.2413 37.2378 37.3787C37.2378 37.5161 37.2924 37.6478 37.3895 37.745C37.4867 37.8421 37.6184 37.8967 37.7558 37.8967C37.8932 37.8967 38.025 37.8421 38.1221 37.745L39.1527 36.7144C39.2498 36.6173 39.3044 36.4855 39.3044 36.3481C39.3044 36.2107 39.2498 36.079 39.1527 35.9818L38.4969 35.326L39.1527 34.6702C39.2498 34.5731 39.3044 34.4413 39.3044 34.3039C39.3044 34.1665 39.2498 34.0348 39.1527 33.9376L38.4969 33.2818L39.3738 32.4049L40.4643 33.4954L40.4633 39.9944C40.4633 40.1103 40.5022 40.2228 40.5737 40.314C40.6452 40.4052 40.7452 40.4698 40.8577 40.4975C41.2014 40.5822 41.5393 40.6886 41.8695 40.816C42.063 40.8911 42.2293 41.0229 42.3466 41.194C42.464 41.3652 42.5269 41.5678 42.5272 41.7753L42.5188 44.6487C42.518 44.8497 42.4592 45.0462 42.3495 45.2147C42.2399 45.3832 42.084 45.5165 41.9005 45.5986C41.1125 45.9611 40.2586 46.1581 39.3916 46.1776C38.5122 46.1603 37.6454 45.9653 36.8433 45.6042C36.6596 45.5235 36.5034 45.3909 36.3941 45.2226C36.2847 45.0543 36.2269 44.8578 36.2278 44.6571L36.2325 41.7519C36.233 41.545 36.295 41.3428 36.4106 41.1712C36.5262 40.9996 36.6902 40.8661 36.8817 40.7879C37.2037 40.6559 37.5354 40.5491 37.8739 40.4684C37.94 40.4525 38.0025 40.4238 38.0575 40.3838C38.1126 40.3438 38.1593 40.2934 38.1949 40.2353C38.2304 40.1773 38.2542 40.1128 38.2649 40.0456C38.2756 39.9784 38.2729 39.9097 38.257 39.8435C38.2412 39.7773 38.2124 39.7149 38.1724 39.6598C38.1324 39.6048 38.082 39.5581 38.0239 39.5225C37.9659 39.4869 37.9015 39.4631 37.8342 39.4525C37.767 39.4418 37.6983 39.4445 37.6321 39.4604C37.2396 39.5546 36.8549 39.6792 36.4817 39.8332C36.1016 39.9898 35.7765 40.2555 35.5475 40.5969C35.3186 40.9383 35.196 41.3399 35.1954 41.751L35.1898 44.6552C35.1898 45.0579 35.3076 45.4518 35.5286 45.7884C35.7497 46.125 36.0644 46.3895 36.4339 46.5495V46.5495Z" fill="#DB953C"/>
</svg>
