<svg width="55" height="55" viewBox="0 0 55 55" fill="none" xmlns="http://www.w3.org/2000/svg">
<g clip-path="url(#clip0)">
<rect width="55" height="55" fill="none"/>
<path d="M35.2001 14.26H19.7001C18.132 14.2619 16.6285 14.8856 15.5197 15.9945C14.4108 17.1034 13.787 18.6068 13.7852 20.175V35.675C13.787 37.2432 14.4108 38.7466 15.5197 39.8555C16.6285 40.9644 18.132 41.5881 19.7001 41.59H35.2001C36.7683 41.5881 38.2718 40.9644 39.3806 39.8555C40.4895 38.7466 41.1133 37.2432 41.1152 35.675V20.175C41.1133 18.6068 40.4895 17.1034 39.3806 15.9945C38.2718 14.8856 36.7683 14.2619 35.2001 14.26V14.26ZM37.9001 35.679C37.9001 36.3951 37.6157 37.0818 37.1093 37.5882C36.603 38.0945 35.9162 38.379 35.2001 38.379H19.7001C18.9841 38.379 18.2973 38.0945 17.791 37.5882C17.2846 37.0818 17.0002 36.3951 17.0002 35.679V20.179C17.0002 19.4629 17.2846 18.7762 17.791 18.2698C18.2973 17.7635 18.9841 17.479 19.7001 17.479H35.2001C35.9162 17.479 36.603 17.7635 37.1093 18.2698C37.6157 18.7762 37.9001 19.4629 37.9001 20.179V35.679Z" fill="#DB953C"/>
<path d="M53.286 22.214C53.7125 22.214 54.1215 22.0446 54.423 21.743C54.7246 21.4415 54.894 21.0325 54.894 20.606C54.894 20.1795 54.7246 19.7705 54.423 19.469C54.1215 19.1674 53.7125 18.998 53.286 18.998H48V14.898H53.282C53.7085 14.898 54.1175 14.7286 54.419 14.427C54.7206 14.1255 54.89 13.7165 54.89 13.29C54.89 12.8635 54.7206 12.4545 54.419 12.153C54.1175 11.8514 53.7085 11.682 53.282 11.682H47.78C47.5041 10.7097 46.9846 9.82382 46.2706 9.10843C45.5566 8.39304 44.6718 7.87177 43.7 7.594V2.087C43.7 1.66054 43.5306 1.25153 43.229 0.949976C42.9275 0.648418 42.5185 0.479004 42.092 0.479004C41.6655 0.479004 41.2565 0.648418 40.955 0.949976C40.6534 1.25153 40.484 1.66054 40.484 2.087V7.37H36.384V2.087C36.384 1.66054 36.2146 1.25153 35.913 0.949976C35.6115 0.648418 35.2025 0.479004 34.776 0.479004C34.3495 0.479004 33.9405 0.648418 33.639 0.949976C33.3374 1.25153 33.168 1.66054 33.168 2.087V7.37H29.068V2.087C29.068 1.66054 28.8986 1.25153 28.597 0.949976C28.2955 0.648418 27.8865 0.479004 27.46 0.479004C27.0335 0.479004 26.6245 0.648418 26.323 0.949976C26.0214 1.25153 25.852 1.66054 25.852 2.087V7.37H21.752V2.087C21.752 1.66054 21.5826 1.25153 21.281 0.949976C20.9795 0.648418 20.5705 0.479004 20.144 0.479004C19.7175 0.479004 19.3085 0.648418 19.007 0.949976C18.7054 1.25153 18.536 1.66054 18.536 2.087V7.37H14.436V2.087C14.436 1.66054 14.2666 1.25153 13.965 0.949976C13.6635 0.648418 13.2545 0.479004 12.828 0.479004C12.4015 0.479004 11.9925 0.648418 11.691 0.949976C11.3894 1.25153 11.22 1.66054 11.22 2.087V7.594C10.2439 7.86771 9.35413 8.38685 8.63554 9.10194C7.91695 9.81702 7.39347 10.7042 7.115 11.679H1.608C1.18153 11.679 0.772531 11.8484 0.470972 12.15C0.169414 12.4515 0 12.8605 0 13.287C0 13.7135 0.169414 14.1225 0.470972 14.424C0.772531 14.7256 1.18153 14.895 1.608 14.895H6.891V18.995H1.608C1.18153 18.995 0.772531 19.1644 0.470972 19.466C0.169414 19.7675 0 20.1765 0 20.603C0 21.0295 0.169414 21.4385 0.470972 21.74C0.772531 22.0416 1.18153 22.211 1.608 22.211H6.891V26.311H1.608C1.18153 26.311 0.772531 26.4804 0.470972 26.782C0.169414 27.0835 0 27.4925 0 27.919C0 28.3455 0.169414 28.7545 0.470972 29.056C0.772531 29.3576 1.18153 29.527 1.608 29.527H6.891V33.627H1.608C1.18153 33.627 0.772531 33.7964 0.470972 34.098C0.169414 34.3995 0 34.8085 0 35.235C0 35.6615 0.169414 36.0705 0.470972 36.372C0.772531 36.6736 1.18153 36.843 1.608 36.843H6.891V40.943H1.608C1.18153 40.943 0.772531 41.1124 0.470972 41.414C0.169414 41.7155 0 42.1245 0 42.551C0 42.9775 0.169414 43.3865 0.470972 43.688C0.772531 43.9896 1.18153 44.159 1.608 44.159H7.114C7.38856 45.1344 7.90818 46.0233 8.62338 46.7412C9.33859 47.459 10.2256 47.9819 11.2 48.26V53.766C11.2 54.1925 11.3694 54.6015 11.671 54.903C11.9725 55.2046 12.3815 55.374 12.808 55.374C13.2345 55.374 13.6435 55.2046 13.945 54.903C14.2466 54.6015 14.416 54.1925 14.416 53.766V48.479H18.516V53.761C18.516 54.1875 18.6854 54.5965 18.987 54.898C19.2885 55.1996 19.6975 55.369 20.124 55.369C20.5505 55.369 20.9595 55.1996 21.261 54.898C21.5626 54.5965 21.732 54.1875 21.732 53.761V48.479H25.832V53.761C25.832 54.1875 26.0014 54.5965 26.303 54.898C26.6045 55.1996 27.0135 55.369 27.44 55.369C27.8665 55.369 28.2755 55.1996 28.577 54.898C28.8786 54.5965 29.048 54.1875 29.048 53.761V48.479H33.148V53.761C33.148 54.1875 33.3174 54.5965 33.619 54.898C33.9205 55.1996 34.3295 55.369 34.756 55.369C35.1825 55.369 35.5915 55.1996 35.893 54.898C36.1946 54.5965 36.364 54.1875 36.364 53.761V48.479H40.464V53.761C40.464 54.1875 40.6334 54.5965 40.935 54.898C41.2365 55.1996 41.6455 55.369 42.072 55.369C42.4985 55.369 42.9075 55.1996 43.209 54.898C43.5106 54.5965 43.68 54.1875 43.68 53.761V48.26C44.6547 47.9858 45.5431 47.4669 46.2607 46.7526C46.9783 46.0384 47.5013 45.1524 47.78 44.179H53.286C53.7125 44.179 54.1215 44.0096 54.423 43.708C54.7246 43.4065 54.894 42.9975 54.894 42.571C54.894 42.1445 54.7246 41.7355 54.423 41.434C54.1215 41.1324 53.7125 40.963 53.286 40.963H48V36.863H53.282C53.7085 36.863 54.1175 36.6936 54.419 36.392C54.7206 36.0905 54.89 35.6815 54.89 35.255C54.89 34.8285 54.7206 34.4195 54.419 34.118C54.1175 33.8164 53.7085 33.647 53.282 33.647H48V29.547H53.282C53.7085 29.547 54.1175 29.3776 54.419 29.076C54.7206 28.7745 54.89 28.3655 54.89 27.939C54.89 27.5125 54.7206 27.1035 54.419 26.802C54.1175 26.5004 53.7085 26.331 53.282 26.331H48V22.231L53.286 22.214ZM42.086 45.267H12.805C12.4504 45.267 12.0993 45.1972 11.7718 45.0615C11.4442 44.9258 11.1465 44.7269 10.8958 44.4762C10.6451 44.2255 10.4462 43.9278 10.3105 43.6003C10.1748 43.2727 10.105 42.9216 10.105 42.567V13.284C10.105 12.5679 10.3895 11.8812 10.8958 11.3748C11.4022 10.8685 12.0889 10.584 12.805 10.584H42.09C42.8061 10.584 43.4928 10.8685 43.9992 11.3748C44.5055 11.8812 44.79 12.5679 44.79 13.284V42.569C44.79 43.2851 44.5055 43.9718 43.9992 44.4782C43.4928 44.9845 42.8061 45.269 42.09 45.269L42.086 45.267Z" fill="#DB953C"/>
<path d="M30.2441 25.4511H30.0641V24.1541C30.0506 23.4627 29.7665 22.8041 29.2728 22.3199C28.779 21.8357 28.1151 21.5645 27.4236 21.5645C26.732 21.5645 26.0681 21.8357 25.5744 22.3199C25.0806 22.8041 24.7965 23.4627 24.7831 24.1541V25.4541H24.6051C24.3556 25.4543 24.1164 25.5536 23.94 25.73C23.7636 25.9064 23.6643 26.1456 23.6641 26.3951V31.4951C23.6643 31.7446 23.7636 31.9837 23.94 32.1602C24.1164 32.3366 24.3556 32.4358 24.6051 32.4361H30.2441C30.4935 32.4358 30.7327 32.3366 30.9092 32.1602C31.0856 31.9837 31.1848 31.7446 31.1851 31.4951V26.3951C31.1853 26.2713 31.1612 26.1486 31.114 26.0342C31.0669 25.9197 30.9976 25.8157 30.9102 25.728C30.8228 25.6404 30.719 25.5708 30.6047 25.5232C30.4904 25.4757 30.3679 25.4512 30.2441 25.4511ZM25.5911 24.1511C25.5911 23.6647 25.7843 23.1982 26.1282 22.8542C26.4722 22.5103 26.9387 22.3171 27.4251 22.3171C27.9115 22.3171 28.378 22.5103 28.7219 22.8542C29.0658 23.1982 29.2591 23.6647 29.2591 24.1511V25.4511H25.5891L25.5911 24.1511ZM30.3781 31.4881C30.3775 31.5234 30.3633 31.5572 30.3382 31.5822C30.3132 31.6073 30.2794 31.6215 30.2441 31.6221H24.6051C24.5697 31.6215 24.5359 31.6073 24.5109 31.5822C24.4859 31.5572 24.4716 31.5234 24.4711 31.4881V26.3881C24.4716 26.3527 24.4859 26.3189 24.5109 26.2939C24.5359 26.2689 24.5697 26.2546 24.6051 26.2541H30.2441C30.2794 26.2546 30.3132 26.2689 30.3382 26.2939C30.3633 26.3189 30.3775 26.3527 30.3781 26.3881V31.4881Z" fill="#DB953C"/>
<path d="M27.4234 27.7671C27.3173 27.7671 27.2156 27.8093 27.1406 27.8843C27.0656 27.9593 27.0234 28.061 27.0234 28.1671V29.7111C27.0234 29.818 27.0659 29.9205 27.1415 29.9961C27.217 30.0717 27.3196 30.1141 27.4264 30.1141C27.5333 30.1141 27.6358 30.0717 27.7114 29.9961C27.787 29.9205 27.8294 29.818 27.8294 29.7111V28.1671C27.8294 28.1141 27.8189 28.0616 27.7984 28.0127C27.7779 27.9637 27.7479 27.9194 27.7102 27.8821C27.6724 27.8449 27.6276 27.8156 27.5784 27.7958C27.5291 27.7761 27.4765 27.7663 27.4234 27.7671V27.7671Z" fill="#DB953C"/>
</g>
<defs>
<clipPath id="clip0">
<rect width="55" height="55" fill="white"/>
</clipPath>
</defs>
</svg>
