<svg width="55" height="55" viewBox="0 0 55 55" fill="none" xmlns="http://www.w3.org/2000/svg">
<rect width="55" height="55" fill="none"/>
<path d="M27.651 38.5359C26.5735 38.5359 25.5202 38.8554 24.6243 39.454C23.7284 40.0527 23.0302 40.9035 22.6178 41.899C22.2055 42.8944 22.0976 43.9898 22.3078 45.0466C22.518 46.1034 23.0369 47.0741 23.7988 47.836C24.5607 48.5979 25.5314 49.1168 26.5882 49.327C27.645 49.5372 28.7404 49.4293 29.7359 49.017C30.7313 48.6047 31.5822 47.9064 32.1808 47.0105C32.7794 46.1146 33.0989 45.0613 33.0989 43.9838C33.0973 42.5394 32.5228 41.1547 31.5014 40.1334C30.4801 39.1121 29.0954 38.5376 27.651 38.5359ZM27.651 47.7107C26.9137 47.7107 26.193 47.4921 25.58 47.0824C24.9669 46.6728 24.4891 46.0906 24.207 45.4095C23.9248 44.7283 23.851 43.9787 23.9949 43.2556C24.1387 42.5325 24.4937 41.8683 25.0151 41.3469C25.5364 40.8256 26.2006 40.4706 26.9238 40.3267C27.6469 40.1829 28.3964 40.2567 29.0776 40.5389C29.7588 40.821 30.341 41.2988 30.7506 41.9118C31.1602 42.5249 31.3788 43.2456 31.3788 43.9829C31.3779 44.9713 30.9848 45.9189 30.2859 46.6178C29.587 47.3167 28.6394 47.7097 27.651 47.7107V47.7107Z" fill="#DB953C" stroke="#DB953C" stroke-width="0.8"/>
<path d="M16.0113 32.3462C15.9295 32.4256 15.8642 32.5205 15.8193 32.6254C15.7745 32.7302 15.7509 32.843 15.75 32.957C15.7491 33.0711 15.771 33.1842 15.8142 33.2897C15.8575 33.3952 15.9213 33.4911 16.0019 33.5718C16.0826 33.6524 16.1784 33.7162 16.284 33.7595C16.3895 33.8027 16.5026 33.8245 16.6167 33.8237C16.7307 33.8228 16.8435 33.7992 16.9483 33.7544C17.0532 33.7095 17.1481 33.6442 17.2275 33.5624C19.9935 30.8026 23.7413 29.2526 27.6487 29.2526C31.556 29.2526 35.3038 30.8026 38.0698 33.5624C38.1492 33.6442 38.2441 33.7095 38.349 33.7544C38.4538 33.7992 38.5666 33.8228 38.6806 33.8237C38.7947 33.8245 38.9078 33.8027 39.0133 33.7595C39.1189 33.7162 39.2148 33.6524 39.2954 33.5718C39.3761 33.4911 39.4398 33.3952 39.4831 33.2897C39.5263 33.1842 39.5482 33.0711 39.5473 32.957C39.5464 32.843 39.5228 32.7302 39.478 32.6254C39.4331 32.5205 39.3678 32.4256 39.286 32.3462C36.197 29.2646 32.0119 27.5339 27.6487 27.5339C23.2854 27.5339 19.1003 29.2646 16.0113 32.3462V32.3462Z" fill="#DB953C" stroke="#DB953C" stroke-width="0.8"/>
<path d="M27.6505 16.5159C24.2832 16.5336 20.9572 17.259 17.8883 18.645C14.8194 20.0309 12.0762 22.0466 9.83643 24.5611C9.68764 24.7287 9.60547 24.945 9.60547 25.1691C9.60547 25.3933 9.68764 25.6096 9.83643 25.7772C9.90623 25.8564 9.99209 25.9199 10.0883 25.9633C10.1845 26.0068 10.2889 26.0293 10.3945 26.0293C10.5001 26.0293 10.6044 26.0068 10.7006 25.9633C10.7969 25.9199 10.8827 25.8564 10.9525 25.7772C13.0413 23.4071 15.6106 21.5088 18.4898 20.2085C21.3689 18.9082 24.4918 18.2357 27.651 18.2357C30.8101 18.2357 33.9331 18.9082 36.8122 20.2085C39.6914 21.5088 42.2607 23.4071 44.3495 25.7772C44.4192 25.8564 44.5051 25.9199 44.6013 25.9633C44.6976 26.0068 44.8019 26.0293 44.9075 26.0293C45.0131 26.0293 45.1174 26.0068 45.2137 25.9633C45.3099 25.9199 45.3957 25.8564 45.4655 25.7772C45.6143 25.6096 45.6965 25.3933 45.6965 25.1691C45.6965 24.945 45.6143 24.7287 45.4655 24.5611C43.2257 22.0464 40.4823 20.0308 37.4132 18.6448C34.3442 17.2588 31.018 16.5335 27.6505 16.5159Z" fill="#DB953C" stroke="#DB953C" stroke-width="0.8"/>
<path d="M53.243 16.7758C49.9923 13.2244 46.0381 10.3885 41.632 8.44826C37.2258 6.50807 32.464 5.5061 27.6496 5.5061C22.8352 5.5061 18.0734 6.50807 13.6673 8.44826C9.26108 10.3885 5.30691 13.2244 2.05626 16.7758C1.90448 16.9419 1.82031 17.1588 1.82031 17.3838C1.82031 17.6089 1.90448 17.8258 2.05626 17.9919C2.1289 18.0713 2.21728 18.1347 2.31576 18.1781C2.41424 18.2215 2.52067 18.2439 2.62828 18.2439C2.73589 18.2439 2.84232 18.2215 2.9408 18.1781C3.03928 18.1347 3.12766 18.0713 3.2003 17.9919C6.30559 14.5992 10.083 11.89 14.2922 10.0365C18.5014 8.18293 23.0504 7.22573 27.6496 7.22573C32.2489 7.22573 36.7978 8.18293 41.007 10.0365C45.2162 11.89 48.9936 14.5992 52.0989 17.9919C52.1716 18.0713 52.2599 18.1347 52.3584 18.1781C52.4569 18.2215 52.5633 18.2439 52.6709 18.2439C52.7786 18.2439 52.885 18.2215 52.9835 18.1781C53.0819 18.1347 53.1703 18.0713 53.243 17.9919C53.3947 17.8258 53.4789 17.6089 53.4789 17.3838C53.4789 17.1588 53.3947 16.9419 53.243 16.7758Z" fill="#DB953C" stroke="#DB953C" stroke-width="0.8"/>
<path d="M37.9726 0.193876C38.1951 0.245241 38.388 0.382885 38.509 0.576528C38.63 0.770171 38.6692 1.00395 38.6178 1.22644L26.4118 54.0966C26.3604 54.3192 26.2226 54.5123 26.0289 54.6334C25.8352 54.7544 25.6013 54.7936 25.3786 54.7422C25.156 54.6908 24.963 54.5531 24.8419 54.3593C24.7208 54.1656 24.6817 53.9317 24.7331 53.7091L36.9391 0.838889C36.9646 0.728651 37.0115 0.624509 37.0772 0.532419C37.143 0.440329 37.2262 0.362095 37.3222 0.302192C37.4182 0.242288 37.525 0.201888 37.6366 0.183303C37.7482 0.164717 37.8624 0.16831 37.9726 0.193876V0.193876Z" fill="#FF9104"/>
</svg>
