<svg width="55" height="55" viewBox="0 0 55 55" fill="none" xmlns="http://www.w3.org/2000/svg">
<g clip-path="url(#clip0)">
<rect width="55" height="55" fill="none"/>
<path d="M29.3865 36.2236H44.0795C44.2023 36.2313 44.3253 36.2127 44.4404 36.1692C44.5555 36.1256 44.66 36.0581 44.747 35.9711C44.834 35.8841 44.9015 35.7796 44.945 35.6645C44.9886 35.5494 45.0071 35.4264 44.9995 35.3036V27.0386C45.0071 26.9158 44.9886 26.7928 44.945 26.6777C44.9015 26.5627 44.834 26.4582 44.747 26.3712C44.66 26.2841 44.5555 26.2166 44.4404 26.1731C44.3253 26.1296 44.2023 26.111 44.0795 26.1186H29.3865C29.2637 26.111 29.1407 26.1296 29.0256 26.1731C28.9105 26.2166 28.806 26.2841 28.719 26.3712C28.632 26.4582 28.5645 26.5627 28.521 26.6777C28.4774 26.7928 28.4589 26.9158 28.4665 27.0386V35.3036C28.4589 35.4264 28.4774 35.5494 28.521 35.6645C28.5645 35.7796 28.632 35.8841 28.719 35.9711C28.806 36.0581 28.9105 36.1256 29.0256 36.1692C29.1407 36.2127 29.2637 36.2313 29.3865 36.2236V36.2236ZM30.3066 27.9587H43.1635V34.3866H30.3055L30.3066 27.9587Z" fill="#DB953C"/>
<path d="M4.588 24.2849H11.935C12.179 24.2849 12.413 24.188 12.5855 24.0154C12.7581 23.8429 12.855 23.6089 12.855 23.3649C12.855 23.1209 12.7581 22.8868 12.5855 22.7143C12.413 22.5418 12.179 22.4448 11.935 22.4448H4.588C4.344 22.4448 4.10998 22.5418 3.93744 22.7143C3.7649 22.8868 3.66797 23.1209 3.66797 23.3649C3.66797 23.6089 3.7649 23.8429 3.93744 24.0154C4.10998 24.188 4.344 24.2849 4.588 24.2849V24.2849Z" fill="#DB953C"/>
<path d="M15.6114 24.2849H22.9584C23.2024 24.2849 23.4364 24.188 23.609 24.0154C23.7815 23.8429 23.8784 23.6089 23.8784 23.3649C23.8784 23.1209 23.7815 22.8868 23.609 22.7143C23.4364 22.5418 23.2024 22.4448 22.9584 22.4448H15.6114C15.3674 22.4448 15.1334 22.5418 14.9609 22.7143C14.7883 22.8868 14.6914 23.1209 14.6914 23.3649C14.6914 23.6089 14.7883 23.8429 14.9609 24.0154C15.1334 24.188 15.3674 24.2849 15.6114 24.2849V24.2849Z" fill="#DB953C"/>
<path d="M4.588 27.9592H16.527C16.771 27.9592 17.005 27.8623 17.1775 27.6897C17.3501 27.5172 17.447 27.2832 17.447 27.0392C17.447 26.7952 17.3501 26.5612 17.1775 26.3886C17.005 26.2161 16.771 26.1191 16.527 26.1191H4.588C4.344 26.1191 4.10998 26.2161 3.93744 26.3886C3.7649 26.5612 3.66797 26.7952 3.66797 27.0392C3.66797 27.2832 3.7649 27.5172 3.93744 27.6897C4.10998 27.8623 4.344 27.9592 4.588 27.9592Z" fill="#DB953C"/>
<path d="M22.9542 26.1221H20.2013C19.9573 26.1221 19.7233 26.219 19.5507 26.3915C19.3782 26.5641 19.2812 26.7981 19.2812 27.0421C19.2812 27.2861 19.3782 27.5201 19.5507 27.6927C19.7233 27.8652 19.9573 27.9621 20.2013 27.9621H22.9563C23.2003 27.9621 23.4343 27.8652 23.6068 27.6927C23.7794 27.5201 23.8763 27.2861 23.8763 27.0421C23.8763 26.7981 23.7794 26.5641 23.6068 26.3915C23.4343 26.219 23.2003 26.1221 22.9563 26.1221H22.9542Z" fill="#DB953C"/>
<path d="M54.2728 14.734C53.9821 14.3404 53.6104 14.0137 53.1828 13.776C52.7551 13.5383 52.2815 13.395 51.7938 13.3559L49.5898 13.0891V8.67298C49.5879 7.69942 49.2003 6.76629 48.5119 6.07788C47.8235 5.38947 46.8904 5.00189 45.9168 5H3.67298C2.69942 5.00189 1.76629 5.38947 1.07788 6.07788C0.389472 6.76629 0.00189119 7.69942 0 8.67298V38.0599C0.00217802 38.8517 0.259234 39.6219 0.733129 40.2563C1.20702 40.8908 1.87258 41.3558 2.63129 41.5826C2.61111 42.4877 2.93479 43.3668 3.53709 44.0427C4.13939 44.7186 4.97553 45.141 5.87697 45.2249L48.3007 49.9998H48.6677C49.5532 50.008 50.412 49.6967 51.0865 49.1228C51.7609 48.549 52.2059 47.7512 52.3397 46.8758L55.0998 17.3969C55.1477 16.9203 55.0991 16.4389 54.957 15.9814C54.815 15.5239 54.5822 15.0996 54.2728 14.734V14.734ZM1.84007 11.4259H47.7528V16.9359H1.84007V11.4259ZM3.68013 6.83393H45.9158C46.4038 6.83393 46.8718 7.0278 47.2169 7.37288C47.562 7.71796 47.7559 8.18599 47.7559 8.674V9.59403H1.84007V8.674C1.84087 8.18775 2.03411 7.72159 2.37756 7.37738C2.721 7.03317 3.18673 6.83889 3.67298 6.837L3.68013 6.83393ZM1.84007 38.0599V18.7749H47.7528V38.0599C47.7528 38.5479 47.5589 39.0159 47.2138 39.361C46.8688 39.7061 46.4007 39.8999 45.9127 39.8999H3.67298C3.1862 39.898 2.72001 39.7033 2.37648 39.3585C2.03294 39.0136 1.84006 38.5466 1.84007 38.0599V38.0599ZM53.2597 17.0299L50.5078 46.5078C50.4574 46.9942 50.2168 47.4409 49.8384 47.7505C49.46 48.0602 48.9745 48.2077 48.4878 48.1608L6.15298 43.3858C5.72936 43.342 5.3337 43.1537 5.03237 42.8528C4.73103 42.5518 4.54234 42.1564 4.49794 41.7328H45.9158C46.8893 41.7309 47.8225 41.3434 48.5109 40.655C49.1993 39.9666 49.5869 39.0334 49.5888 38.0599V14.826L51.7008 15.01C51.9352 15.0211 52.1641 15.0846 52.3708 15.1959C52.5774 15.3072 52.7564 15.4634 52.8948 15.653C53.0431 15.8472 53.1517 16.0688 53.2143 16.3051C53.2769 16.5414 53.2924 16.7877 53.2597 17.0299V17.0299Z" fill="#DB953C"/>
</g>
<defs>
<clipPath id="clip0">
<rect width="55" height="55" fill="white"/>
</clipPath>
</defs>
</svg>
