<svg width="55" height="55" viewBox="0 0 55 55" fill="none" xmlns="http://www.w3.org/2000/svg">
<g clip-path="url(#clip0)">
<rect width="55" height="55" fill="none"/>
<path d="M35.0918 27.0013C35.0918 26.5766 34.8829 26.1895 34.5321 25.965L33.6095 25.3797C33.965 25.1521 34.2816 24.9491 34.5329 24.7879C34.8829 24.5627 35.0918 24.1756 35.0918 23.7524C35.0918 23.3293 34.8829 22.9422 34.5329 22.7165C33.3797 21.9769 29.4692 19.4708 27.5416 18.2791C27.0952 18.0026 26.5524 17.9916 26.0699 18.2815C26.0699 18.2815 20.8276 21.6022 19.0831 22.7162C18.7323 22.9406 18.5234 23.3277 18.5234 23.7524C18.5234 24.1756 18.7323 24.5627 19.0824 24.7883C19.3335 24.9494 19.6502 25.1524 20.0055 25.3798L19.0831 25.965C18.7323 26.1895 18.5234 26.5766 18.5234 27.0013C18.5234 27.4245 18.7323 27.8115 19.0824 28.0372C19.3335 28.1983 19.6502 28.4013 20.0055 28.6287L19.0831 29.2139C18.7323 29.4384 18.5234 29.8255 18.5234 30.2502C18.5234 30.6734 18.7323 31.0604 19.0824 31.2861C20.5746 32.2431 24.2423 34.5913 26.0736 35.7236C26.2979 35.8624 26.5524 35.9358 26.8076 35.9358C27.0628 35.9358 27.3173 35.8624 27.5424 35.7232C29.3729 34.5913 33.0406 32.2431 34.5329 31.2857C34.883 31.0604 35.0918 30.6734 35.0918 30.2502C35.0918 29.8255 34.8829 29.4384 34.5322 29.2139L33.6096 28.6286C33.965 28.401 34.2817 28.198 34.5329 28.0368C34.8829 27.8115 35.0918 27.4245 35.0918 27.0013ZM19.4678 24.0914C19.4104 24.0541 19.2765 23.947 19.2765 23.7531C19.2765 23.5584 19.4097 23.4521 19.467 23.4156C21.2093 22.3028 26.4443 18.9871 26.4436 18.9875C26.6833 18.8419 26.9451 18.8475 27.1673 18.9847C29.0897 20.1732 32.9965 22.6764 34.1475 23.4148C34.2048 23.4521 34.3387 23.5592 34.3387 23.7531C34.3387 23.947 34.2048 24.0541 34.1475 24.091C32.6574 25.0467 28.9941 27.3924 27.168 28.5211C26.9415 28.6607 26.673 28.6603 26.448 28.5215C24.6211 27.3924 20.9578 25.0467 19.4678 24.0914ZM34.1482 29.913C34.2056 29.9495 34.3387 30.0558 34.3387 30.2505C34.3387 30.4445 34.2048 30.5515 34.1475 30.5884C32.6574 31.5441 28.9941 33.8899 27.168 35.0185C26.9415 35.1581 26.673 35.1577 26.448 35.0189C24.6211 33.8899 20.9578 31.5441 19.4678 30.5888C19.4104 30.5515 19.2765 30.4444 19.2765 30.2505C19.2765 30.0558 19.4097 29.9495 19.467 29.913L20.7449 29.1021C22.4722 30.2062 24.7506 31.6569 26.0736 32.4748C26.2979 32.6137 26.5524 32.687 26.8076 32.687C27.0628 32.687 27.3173 32.6137 27.5424 32.4745C28.8648 31.6568 31.1431 30.2063 32.8702 29.102L34.1482 29.913ZM34.1475 27.3397C32.6574 28.2954 28.9941 30.6412 27.168 31.7698C26.9415 31.9094 26.673 31.909 26.448 31.7702C24.6211 30.6411 20.9578 28.2954 19.4678 27.3401C19.4104 27.3028 19.2765 27.1957 19.2765 27.0018C19.2765 26.8071 19.4097 26.7008 19.467 26.6643L20.7449 25.8534C22.4722 26.9575 24.7506 28.4082 26.0736 29.2261C26.2979 29.365 26.5524 29.4383 26.8076 29.4383C27.0628 29.4383 27.3173 29.365 27.5424 29.2258C28.8648 28.4081 31.1431 26.9576 32.8702 25.8533L34.1482 26.6643C34.2056 26.7008 34.3387 26.8071 34.3387 27.0018C34.3387 27.1957 34.2048 27.3028 34.1475 27.3397Z" fill="#DB953C"/>
<path d="M47.9592 11.2508L27.4463 0.320458C27.142 0.158042 26.7773 0.160322 26.4752 0.326157L6.52999 11.2565C6.20288 11.436 6 11.7791 6 12.1523V26.4301C6.01197 38.1668 12.9657 48.7848 23.7193 53.4869L26.4878 54.6934C26.7465 54.8062 27.0411 54.8068 27.3004 54.6945L30.42 53.3473C41.3731 48.7472 48.4989 38.0266 48.5 26.1469V12.1523C48.5 11.7751 48.292 11.428 47.9592 11.2508V11.2508ZM46.4575 26.1469C46.4553 37.2077 39.819 47.188 29.6204 51.4684L29.6136 51.4718L26.897 52.6446L24.5365 51.6149C14.5266 47.2382 8.05328 37.3553 8.04188 26.4301V12.757L26.9728 2.38172L46.4575 12.7644V26.1469Z" fill="#DB953C"/>
</g>
<defs>
<clipPath id="clip0">
<rect width="55" height="55" fill="white"/>
</clipPath>
</defs>
</svg>
