<svg width="399" height="351" viewBox="0 0 399 351" fill="none" xmlns="http://www.w3.org/2000/svg">
<path d="M138 118H363V351H138V118Z" fill="#F6BD72"/>
<path d="M0 0H399V341H0V0Z" fill="#1C1717"/>
<path d="M230.319 175.484C230.319 174.164 229.67 172.961 228.58 172.263L225.712 170.444C226.817 169.737 227.801 169.106 228.582 168.605C229.67 167.905 230.319 166.702 230.319 165.387C230.319 164.071 229.67 162.868 228.582 162.167C224.998 159.868 212.845 152.08 206.854 148.376C205.466 147.517 203.779 147.482 202.28 148.383C202.28 148.383 185.987 158.704 180.565 162.166C179.475 162.864 178.826 164.066 178.826 165.387C178.826 166.702 179.475 167.905 180.563 168.606C181.344 169.107 182.328 169.737 183.432 170.444L180.566 172.263C179.475 172.961 178.826 174.164 178.826 175.484C178.826 176.799 179.475 178.002 180.563 178.703C181.344 179.204 182.328 179.835 183.432 180.542L180.566 182.36C179.475 183.058 178.826 184.261 178.826 185.581C178.826 186.896 179.475 188.099 180.563 188.801C185.201 191.775 196.6 199.073 202.292 202.592C202.989 203.023 203.78 203.251 204.573 203.251C205.366 203.251 206.157 203.023 206.856 202.591C212.545 199.073 223.944 191.775 228.582 188.799C229.67 188.099 230.319 186.896 230.319 185.581C230.319 184.261 229.67 183.058 228.58 182.36L225.713 180.541C226.817 179.834 227.801 179.203 228.582 178.702C229.67 178.002 230.319 176.799 230.319 175.484ZM181.761 166.44C181.583 166.324 181.167 165.991 181.167 165.389C181.167 164.784 181.58 164.453 181.759 164.34C187.174 160.881 203.444 150.576 203.441 150.578C204.186 150.125 205 150.142 205.69 150.569C211.665 154.263 223.807 162.042 227.384 164.337C227.563 164.453 227.979 164.786 227.979 165.389C227.979 165.991 227.563 166.324 227.384 166.439C222.753 169.409 211.368 176.699 205.693 180.207C204.989 180.641 204.154 180.64 203.455 180.208C197.777 176.699 186.392 169.409 181.761 166.44ZM227.387 184.533C227.565 184.647 227.979 184.977 227.979 185.582C227.979 186.185 227.563 186.518 227.384 186.632C222.753 189.602 211.368 196.893 205.693 200.401C204.989 200.834 204.154 200.833 203.455 200.402C197.777 196.893 186.392 189.602 181.761 186.633C181.583 186.518 181.167 186.185 181.167 185.582C181.167 184.977 181.58 184.647 181.759 184.533L185.73 182.013C191.098 185.444 198.18 189.953 202.292 192.495C202.989 192.926 203.78 193.154 204.573 193.154C205.366 193.154 206.157 192.926 206.856 192.494C210.966 189.953 218.047 185.445 223.415 182.013L227.387 184.533ZM227.384 176.535C222.753 179.506 211.368 186.796 205.693 190.304C204.989 190.738 204.154 190.736 203.455 190.305C197.777 186.796 186.392 179.506 181.761 176.537C181.583 176.421 181.167 176.088 181.167 175.485C181.167 174.88 181.58 174.55 181.759 174.436L185.73 171.916C191.098 175.348 198.18 179.856 202.292 182.398C202.989 182.83 203.78 183.058 204.573 183.058C205.366 183.058 206.157 182.83 206.856 182.397C210.966 179.856 218.047 175.348 223.415 171.916L227.387 174.436C227.565 174.55 227.979 174.88 227.979 175.485C227.979 176.088 227.563 176.421 227.384 176.535Z" fill="#DB953C"/>
<mask id="path-4-inside-1" fill="white">
<path d="M270.32 126.42L206.61 92.3746C205.665 91.8687 204.532 91.8758 203.594 92.3923L141.646 126.438C140.63 126.997 140 128.066 140 129.228V173.701C140.037 210.258 161.634 243.331 195.034 257.977L203.633 261.735C204.436 262.087 205.351 262.089 206.157 261.739L215.846 257.543C249.865 243.214 271.996 209.822 272 172.819V129.228C272 128.053 271.354 126.972 270.32 126.42V126.42ZM265.656 172.819C265.649 207.271 245.038 238.358 213.362 251.69L213.341 251.701L204.903 255.354L197.572 252.146C166.482 238.514 146.377 207.731 146.342 173.701V131.112L205.139 98.795L265.656 131.135V172.819Z"/>
</mask>
<path d="M270.32 126.42L206.61 92.3746C205.665 91.8687 204.532 91.8758 203.594 92.3923L141.646 126.438C140.63 126.997 140 128.066 140 129.228V173.701C140.037 210.258 161.634 243.331 195.034 257.977L203.633 261.735C204.436 262.087 205.351 262.089 206.157 261.739L215.846 257.543C249.865 243.214 271.996 209.822 272 172.819V129.228C272 128.053 271.354 126.972 270.32 126.42V126.42ZM265.656 172.819C265.649 207.271 245.038 238.358 213.362 251.69L213.341 251.701L204.903 255.354L197.572 252.146C166.482 238.514 146.377 207.731 146.342 173.701V131.112L205.139 98.795L265.656 131.135V172.819Z" fill="#DB953C" stroke="#201B1B" stroke-width="3" mask="url(#path-4-inside-1)"/>
</svg>
