<svg width="175" height="143" viewBox="0 0 175 143" fill="none" xmlns="http://www.w3.org/2000/svg">
<path d="M92.972 99.5225H139.343C139.73 99.5466 140.119 99.488 140.482 99.3506C140.845 99.2132 141.175 99.0001 141.45 98.7256C141.724 98.451 141.937 98.1211 142.075 97.7579C142.212 97.3947 142.271 97.0065 142.246 96.6189V70.5346C142.271 70.1471 142.212 69.7588 142.075 69.3956C141.937 69.0324 141.724 68.7026 141.45 68.428C141.175 68.1535 140.845 67.9404 140.482 67.803C140.119 67.6656 139.73 67.607 139.343 67.631H92.972C92.5844 67.607 92.1961 67.6656 91.8329 67.803C91.4697 67.9404 91.1399 68.1535 90.8653 68.428C90.5907 68.7026 90.3777 69.0324 90.2403 69.3956C90.1029 69.7588 90.0443 70.1471 90.0684 70.5346V96.6189C90.0443 97.0065 90.1029 97.3947 90.2403 97.7579C90.3777 98.1211 90.5907 98.451 90.8653 98.7256C91.1399 99.0001 91.4697 99.2132 91.8329 99.3506C92.1961 99.488 92.5844 99.5466 92.972 99.5225ZM95.8756 73.4383H136.452V93.725H95.8723L95.8756 73.4383Z" fill="#DB953C"/>
<path d="M14.7192 61.8431H37.9063C38.6764 61.8431 39.4149 61.5372 39.9594 60.9927C40.504 60.4481 40.8099 59.7096 40.8099 58.9395C40.8099 58.1694 40.504 57.4309 39.9594 56.8863C39.4149 56.3418 38.6764 56.0359 37.9063 56.0359H14.7192C13.9491 56.0359 13.2105 56.3418 12.666 56.8863C12.1215 57.4309 11.8156 58.1694 11.8156 58.9395C11.8156 59.7096 12.1215 60.4481 12.666 60.9927C13.2105 61.5372 13.9491 61.8431 14.7192 61.8431Z" fill="#DB953C"/>
<path d="M49.4983 61.8431H72.6853C73.4554 61.8431 74.194 61.5372 74.7385 60.9927C75.283 60.4481 75.5889 59.7096 75.5889 58.9395C75.5889 58.1694 75.283 57.4309 74.7385 56.8863C74.194 56.3418 73.4554 56.0359 72.6853 56.0359H49.4983C48.7282 56.0359 47.9896 56.3418 47.4451 56.8863C46.9005 57.4309 46.5946 58.1694 46.5946 58.9395C46.5946 59.7096 46.9005 60.4481 47.4451 60.9927C47.9896 61.5372 48.7282 61.8431 49.4983 61.8431Z" fill="#DB953C"/>
<path d="M14.7192 73.4383H52.3986C53.1687 73.4383 53.9072 73.1323 54.4518 72.5878C54.9963 72.0433 55.3022 71.3047 55.3022 70.5346C55.3022 69.7645 54.9963 69.026 54.4518 68.4815C53.9072 67.937 53.1687 67.631 52.3986 67.631H14.7192C13.9491 67.631 13.2105 67.937 12.666 68.4815C12.1215 69.026 11.8156 69.7645 11.8156 70.5346C11.8156 71.3047 12.1215 72.0433 12.666 72.5878C13.2105 73.1323 13.9491 73.4383 14.7192 73.4383Z" fill="#DB953C"/>
<path d="M72.6853 67.6407H63.997C63.227 67.6407 62.4884 67.9467 61.9439 68.4912C61.3993 69.0357 61.0934 69.7742 61.0934 70.5443C61.0934 71.3144 61.3993 72.053 61.9439 72.5975C62.4884 73.142 63.227 73.448 63.997 73.448H72.6918C73.4619 73.448 74.2004 73.142 74.745 72.5975C75.2895 72.053 75.5954 71.3144 75.5954 70.5443C75.5954 69.7742 75.2895 69.0357 74.745 68.4912C74.2004 67.9467 73.4619 67.6407 72.6918 67.6407H72.6853Z" fill="#DB953C"/>
<path d="M171.515 31.7002C170.598 30.4581 169.425 29.4271 168.075 28.6769C166.726 27.9267 165.231 27.4746 163.692 27.3512L156.736 26.5092V12.5718C156.73 9.49924 155.507 6.55426 153.334 4.38165C151.161 2.20903 148.216 0.985827 145.144 0.979858H11.8222C8.74962 0.985827 5.80463 2.20903 3.63201 4.38165C1.4594 6.55426 0.236193 9.49924 0.230225 12.5718V105.317C0.237098 107.816 1.04837 110.247 2.54398 112.249C4.03959 114.251 6.14008 115.719 8.5346 116.435C8.47089 119.291 9.49243 122.066 11.3933 124.199C13.2942 126.332 15.933 127.665 18.778 127.93L152.667 143H153.826C156.62 143.025 159.331 142.043 161.459 140.232C163.588 138.421 164.992 135.903 165.414 133.14L174.125 40.1046C174.276 38.6003 174.123 37.0809 173.675 35.637C173.226 34.1932 172.492 32.8543 171.515 31.7002ZM6.03748 21.2601H150.938V38.6496H6.03748V21.2601ZM11.8447 6.76775H145.141C146.681 6.76775 148.158 7.37959 149.247 8.46867C150.336 9.55774 150.948 11.0348 150.948 12.575V15.4786H6.03748V12.575C6.04003 11.0404 6.64989 9.56921 7.73381 8.48288C8.81772 7.39655 10.2876 6.7834 11.8222 6.77744L11.8447 6.76775ZM6.03748 105.317V44.4536H150.938V105.317C150.938 106.857 150.326 108.334 149.237 109.423C148.148 110.512 146.671 111.124 145.131 111.124H11.8222C10.2859 111.118 8.81459 110.504 7.73039 109.415C6.6462 108.327 6.03747 106.853 6.03748 105.317ZM168.318 38.9464L159.633 131.979C159.474 133.514 158.715 134.923 157.52 135.901C156.326 136.878 154.794 137.343 153.258 137.195L19.649 122.126C18.3121 121.987 17.0634 121.393 16.1124 120.443C15.1614 119.494 14.5659 118.246 14.4257 116.909H145.141C148.213 116.903 151.158 115.68 153.331 113.507C155.503 111.334 156.727 108.389 156.733 105.317V31.9906L163.398 32.5713C164.138 32.6065 164.86 32.807 165.512 33.1582C166.165 33.5094 166.73 34.0023 167.166 34.6006C167.634 35.2138 167.977 35.9132 168.175 36.6589C168.372 37.4046 168.421 38.1819 168.318 38.9464Z" fill="#DB953C"/>
</svg>
