<svg width="399" height="351" viewBox="0 0 399 351" fill="none" xmlns="http://www.w3.org/2000/svg">
<path d="M138 118H363V351H138V118Z" fill="#F6BD72"/>
<path d="M0 0H399V341H0V0Z" fill="#1C1717"/>
<path d="M245.709 136.848V136.848V163.893C245.709 164.754 245.367 165.58 244.759 166.189C244.15 166.797 243.325 167.139 242.464 167.139C241.608 167.134 240.788 166.791 240.184 166.184C239.579 165.576 239.24 164.754 239.24 163.896V142.252V141.53L238.564 141.783L201.667 155.62L201.343 155.742V156.088V205.59V206.312L202.018 206.059L238.906 192.231L239.23 192.11V191.763V181.364C239.257 180.523 239.609 179.724 240.213 179.138C240.819 178.55 241.63 178.221 242.474 178.221C243.319 178.221 244.13 178.55 244.736 179.138C245.34 179.724 245.692 180.523 245.719 181.364V194.358C245.719 195.019 245.517 195.664 245.141 196.207C244.765 196.75 244.231 197.166 243.613 197.398L199.224 214.042L199.22 214.044C198.49 214.324 197.681 214.324 196.951 214.044L196.947 214.043L152.545 197.391L152.545 197.391C151.926 197.16 151.393 196.744 151.017 196.201C150.64 195.658 150.439 195.013 150.439 194.352V194.352V166.392V166.384L150.439 166.377C150.426 165.943 150.501 165.511 150.658 165.106C150.815 164.701 151.052 164.332 151.355 164.02C151.657 163.709 152.019 163.461 152.419 163.292C152.819 163.123 153.249 163.036 153.684 163.036C154.118 163.036 154.548 163.123 154.948 163.292C155.348 163.461 155.71 163.709 156.012 164.02C156.315 164.332 156.552 164.701 156.709 165.106C156.867 165.511 156.941 165.943 156.928 166.377L156.928 166.384V166.392V191.757V192.103L157.253 192.225L194.149 206.062L194.825 206.315V205.594V156.092V155.745L194.5 155.623L157.604 141.787L156.928 141.533V142.255V148.873V148.881L156.928 148.888C156.941 149.322 156.867 149.754 156.709 150.159C156.552 150.564 156.315 150.933 156.012 151.245C155.71 151.556 155.348 151.804 154.948 151.973C154.548 152.142 154.118 152.229 153.684 152.229C153.249 152.229 152.819 152.142 152.419 151.973C152.019 151.804 151.657 151.556 151.355 151.245C151.052 150.933 150.815 150.564 150.658 150.159C150.501 149.754 150.426 149.322 150.439 148.888L150.439 148.881V148.873V136.848C150.439 136.188 150.641 135.543 151.017 135C151.394 134.456 151.927 134.041 152.545 133.809L196.934 117.164L196.935 117.164C197.669 116.889 198.479 116.889 199.214 117.164L199.214 117.164L243.603 133.809L243.603 133.809C244.222 134.041 244.755 134.456 245.132 134.999C245.508 135.542 245.71 136.187 245.709 136.848ZM197.902 149.964L198.077 150.03L198.253 149.964L232 137.317L233.249 136.848L232 136.38L198.253 123.733L198.077 123.667L197.902 123.733L164.181 136.38L162.932 136.848L164.181 137.317L197.902 149.964Z" fill="#DB953C" stroke="#1C1717"/>
<path d="M194.844 132.914L194.845 132.907V132.899V106.006H194.345L194.444 105.516C189.978 104.612 186.007 102.081 183.302 98.4147C180.597 94.7482 179.351 90.2075 179.805 85.6738C180.259 81.1401 182.382 76.9369 185.76 73.8798C189.139 70.8228 193.533 69.13 198.089 69.13C202.645 69.13 207.039 70.8228 210.418 73.8798C213.796 76.9369 215.919 81.1401 216.373 85.6738C216.827 90.2075 215.581 94.7482 212.876 98.4147C210.171 102.081 206.2 104.612 201.734 105.516L201.333 105.597V106.006V132.899V132.907L201.334 132.914C201.346 133.348 201.272 133.78 201.115 134.185C200.957 134.59 200.72 134.959 200.418 135.271C200.115 135.582 199.753 135.83 199.353 135.999C198.953 136.168 198.523 136.255 198.089 136.255C197.655 136.255 197.225 136.168 196.825 135.999C196.425 135.83 196.063 135.582 195.76 135.271C195.458 134.959 195.221 134.59 195.063 134.185C194.906 133.78 194.832 133.348 194.844 132.914ZM204.694 77.6211C202.798 76.3539 200.578 75.6599 198.301 75.6197L198.295 75.6143L198.087 75.6146C194.935 75.619 191.915 76.8733 189.687 79.1022C187.459 81.3312 186.207 84.3527 186.204 87.504V87.5044C186.204 89.8553 186.901 92.1535 188.207 94.1082C189.513 96.063 191.37 97.5865 193.542 98.4862C195.714 99.3858 198.104 99.6212 200.41 99.1626C202.715 98.7039 204.833 97.5719 206.496 95.9095C208.158 94.2471 209.29 92.1291 209.749 89.8234C210.207 87.5176 209.972 85.1276 209.072 82.9556C208.173 80.7836 206.649 78.9272 204.694 77.6211Z" fill="#DB953C" stroke="#1C1717"/>
<path d="M201.334 193.876L201.333 193.884V193.891V220.784H201.833L201.734 221.274C206.2 222.178 210.171 224.709 212.876 228.376C215.581 232.042 216.827 236.583 216.373 241.116C215.919 245.65 213.796 249.853 210.418 252.91C207.039 255.967 202.645 257.66 198.089 257.66C193.533 257.66 189.139 255.967 185.76 252.91C182.382 249.853 180.259 245.65 179.805 241.116C179.351 236.583 180.597 232.042 183.302 228.376C186.007 224.709 189.978 222.178 194.444 221.274L194.845 221.193V220.784V193.891V193.884L194.844 193.876C194.832 193.442 194.906 193.01 195.063 192.605C195.221 192.2 195.458 191.831 195.76 191.52C196.063 191.208 196.425 190.96 196.825 190.791C197.225 190.622 197.655 190.535 198.089 190.535C198.523 190.535 198.953 190.622 199.353 190.791C199.753 190.96 200.115 191.208 200.418 191.52C200.72 191.831 200.957 192.2 201.115 192.605C201.272 193.01 201.346 193.442 201.334 193.876ZM209.974 239.286V239.286C209.974 236.935 209.277 234.637 207.971 232.682C206.665 230.727 204.808 229.204 202.636 228.304C200.464 227.404 198.074 227.169 195.768 227.628C193.463 228.086 191.345 229.218 189.682 230.881C188.02 232.543 186.888 234.661 186.429 236.967C185.97 239.273 186.206 241.663 187.106 243.835C188.005 246.007 189.529 247.863 191.484 249.169C193.438 250.475 195.736 251.172 198.087 251.172V250.673L198.088 251.172C201.239 251.169 204.26 249.915 206.489 247.687C208.717 245.459 209.97 242.438 209.974 239.286Z" fill="#DB953C" stroke="#1C1717"/>
<path d="M270.617 162.369H271.025L271.107 161.968C271.953 157.814 274.208 154.079 277.49 151.395C280.772 148.711 284.879 147.242 289.119 147.236C292.598 147.236 296.005 148.223 298.946 150.082C301.886 151.942 304.238 154.598 305.728 157.742C307.218 160.885 307.786 164.387 307.364 167.841C306.943 171.294 305.55 174.557 303.347 177.25C301.145 179.943 298.223 181.956 294.922 183.054C291.621 184.152 288.076 184.291 284.699 183.454C281.322 182.617 278.252 180.838 275.846 178.325C273.44 175.813 271.797 172.668 271.107 169.258L271.026 168.858H270.617H243.724H243.716L243.709 168.858C243.275 168.871 242.843 168.796 242.438 168.639C242.033 168.481 241.664 168.244 241.352 167.942C241.041 167.639 240.793 167.277 240.624 166.877C240.455 166.477 240.368 166.047 240.368 165.613C240.368 165.179 240.455 164.749 240.624 164.349C240.793 163.949 241.041 163.587 241.352 163.284C241.664 162.982 242.033 162.745 242.438 162.588C242.843 162.43 243.275 162.356 243.709 162.368L243.716 162.369H243.724H270.617ZM289.119 177.501H289.619V177.474C292.585 177.346 295.404 176.113 297.514 174.006C299.742 171.781 300.997 168.764 301.005 165.616V165.615C301.005 163.264 300.308 160.966 299.002 159.011C297.696 157.056 295.839 155.533 293.667 154.633C291.495 153.733 289.105 153.498 286.8 153.957C284.494 154.415 282.376 155.547 280.713 157.21C279.051 158.872 277.919 160.99 277.46 163.296C277.002 165.602 277.237 167.992 278.137 170.164C279.036 172.336 280.56 174.192 282.515 175.498C284.469 176.804 286.768 177.501 289.119 177.501Z" fill="#DB953C" stroke="#1C1717"/>
<path d="M118.946 165.599V165.599C118.942 168.751 117.688 171.773 115.459 174.001C113.231 176.229 110.21 177.482 107.059 177.485L118.946 165.599ZM118.946 165.599C118.946 163.248 118.248 160.95 116.942 158.995C115.636 157.04 113.78 155.517 111.608 154.617C109.436 153.717 107.046 153.482 104.74 153.941C102.434 154.399 100.316 155.531 98.6539 157.194C96.9915 158.856 95.8594 160.974 95.4008 163.28C94.9421 165.586 95.1775 167.975 96.0772 170.147C96.9769 172.319 98.5004 174.176 100.455 175.482C102.409 176.788 104.706 177.485 107.056 177.485L118.946 165.599ZM152.468 168.842L152.461 168.842H152.454H125.561V169.342L125.07 169.242C124.167 173.708 121.636 177.679 117.969 180.384C114.303 183.089 109.762 184.335 105.228 183.881C100.695 183.427 96.4914 181.305 93.4344 177.926C90.3774 174.547 88.6846 170.153 88.6846 165.597C88.6846 161.041 90.3774 156.647 93.4344 153.268C96.4914 149.89 100.695 147.767 105.228 147.313C109.762 146.859 114.303 148.105 117.969 150.81C121.636 153.515 124.167 157.486 125.07 161.952L125.152 162.353H125.561H152.454H152.461L152.468 162.352C152.903 162.34 153.335 162.414 153.74 162.571C154.144 162.729 154.514 162.966 154.825 163.268C155.137 163.571 155.384 163.933 155.554 164.333C155.723 164.733 155.81 165.163 155.81 165.597C155.81 166.031 155.723 166.461 155.554 166.861C155.384 167.261 155.137 167.623 154.825 167.926C154.514 168.228 154.144 168.465 153.74 168.623C153.335 168.78 152.903 168.855 152.468 168.842Z" fill="#DB953C" stroke="#1C1717"/>
</svg>
