<svg width="399" height="351" viewBox="0 0 399 351" fill="none" xmlns="http://www.w3.org/2000/svg">
<path d="M28 118H274V351H28V118Z" fill="#F6BD72"/>
<path d="M0 0H399V341H0V0Z" fill="#1C1717"/>
<mask id="path-3-inside-1" fill="white">
<path d="M115.009 101.433L146.308 84.5298L167.172 73.2622L173.008 70.1344C175.79 68.7282 179.005 68.4405 181.993 69.3303C184.981 70.2201 187.514 72.22 189.074 74.9193L223.3 138.143H264.609C265.844 138.138 267.068 138.377 268.209 138.847C269.351 139.317 270.388 140.009 271.261 140.882C272.134 141.755 272.826 142.792 273.296 143.934C273.766 145.076 274.005 146.299 274 147.534V250.003C274.005 251.238 273.766 252.461 273.296 253.603C272.826 254.745 272.134 255.782 271.261 256.655C270.388 257.528 269.351 258.219 268.209 258.689C267.068 259.16 265.844 259.399 264.609 259.393H132.529C131.295 259.398 130.072 259.159 128.93 258.689C127.789 258.218 126.752 257.527 125.879 256.654C125.007 255.781 124.316 254.744 123.846 253.602C123.376 252.461 123.137 251.237 123.142 250.003V226.004H119.177C118.683 226.007 118.193 225.913 117.736 225.725C117.279 225.538 116.864 225.262 116.514 224.912C116.165 224.563 115.889 224.147 115.701 223.69C115.514 223.233 115.419 222.743 115.423 222.249V194.915C115.418 194.421 115.512 193.931 115.699 193.473C115.886 193.015 116.162 192.599 116.511 192.249C116.86 191.899 117.275 191.622 117.732 191.434C118.19 191.246 118.68 191.151 119.174 191.154H123.142V164.24C123.171 162.117 123.904 160.064 125.226 158.403C126.547 156.741 128.383 155.566 130.445 155.06L110.201 117.502C109.454 116.133 108.987 114.63 108.825 113.079C108.663 111.528 108.809 109.96 109.256 108.466C109.704 106.972 110.442 105.581 111.429 104.374C112.417 103.167 113.633 102.167 115.009 101.433ZM182.398 78.4809C181.807 77.4672 180.857 76.7125 179.736 76.3667C178.615 76.0208 177.405 76.109 176.346 76.6137L170.504 79.7449L211.192 154.853H223.711L182.398 78.4809ZM156.315 87.4577L192.612 154.853H202.846L164.034 83.2794L156.315 87.4577ZM264.609 145.463H227.052L232.06 154.643H264.613C265.315 154.61 266.019 154.681 266.7 154.853V147.341C266.653 146.821 266.412 146.339 266.024 145.991C265.636 145.643 265.131 145.454 264.609 145.463ZM122.929 198.463V218.494H144.83C145.324 218.498 145.814 218.403 146.271 218.216C146.729 218.028 147.144 217.752 147.493 217.403C147.843 217.053 148.119 216.638 148.307 216.181C148.494 215.724 148.589 215.234 148.585 214.74V201.998C148.585 201.506 148.488 201.019 148.299 200.565C148.11 200.111 147.833 199.699 147.484 199.352C147.135 199.006 146.721 198.732 146.265 198.546C145.81 198.36 145.322 198.267 144.83 198.27H122.929V198.463ZM144.83 191.154C147.757 191.173 150.558 192.345 152.628 194.414C154.697 196.484 155.868 199.285 155.888 202.211V214.94C155.87 217.867 154.7 220.67 152.63 222.741C150.56 224.812 147.758 225.984 144.83 226.004H130.442V250C130.443 250.553 130.663 251.083 131.054 251.475C131.445 251.866 131.976 252.086 132.529 252.087H264.609C265.163 252.086 265.693 251.866 266.085 251.475C266.476 251.083 266.696 250.553 266.697 250V164.24C266.696 163.687 266.476 163.156 266.085 162.765C265.693 162.374 265.163 162.154 264.609 162.153H132.529C131.976 162.154 131.445 162.374 131.054 162.765C130.663 163.156 130.443 163.687 130.442 164.24V191.154H144.83ZM116.67 113.954L138.788 154.853H184.276L149.846 91.0024L118.547 107.906C118.015 108.167 117.542 108.535 117.157 108.985C116.772 109.436 116.483 109.96 116.307 110.526C116.131 111.092 116.073 111.688 116.135 112.278C116.198 112.867 116.379 113.438 116.67 113.954Z"/>
</mask>
<path d="M115.009 101.433L146.308 84.5298L167.172 73.2622L173.008 70.1344C175.79 68.7282 179.005 68.4405 181.993 69.3303C184.981 70.2201 187.514 72.22 189.074 74.9193L223.3 138.143H264.609C265.844 138.138 267.068 138.377 268.209 138.847C269.351 139.317 270.388 140.009 271.261 140.882C272.134 141.755 272.826 142.792 273.296 143.934C273.766 145.076 274.005 146.299 274 147.534V250.003C274.005 251.238 273.766 252.461 273.296 253.603C272.826 254.745 272.134 255.782 271.261 256.655C270.388 257.528 269.351 258.219 268.209 258.689C267.068 259.16 265.844 259.399 264.609 259.393H132.529C131.295 259.398 130.072 259.159 128.93 258.689C127.789 258.218 126.752 257.527 125.879 256.654C125.007 255.781 124.316 254.744 123.846 253.602C123.376 252.461 123.137 251.237 123.142 250.003V226.004H119.177C118.683 226.007 118.193 225.913 117.736 225.725C117.279 225.538 116.864 225.262 116.514 224.912C116.165 224.563 115.889 224.147 115.701 223.69C115.514 223.233 115.419 222.743 115.423 222.249V194.915C115.418 194.421 115.512 193.931 115.699 193.473C115.886 193.015 116.162 192.599 116.511 192.249C116.86 191.899 117.275 191.622 117.732 191.434C118.19 191.246 118.68 191.151 119.174 191.154H123.142V164.24C123.171 162.117 123.904 160.064 125.226 158.403C126.547 156.741 128.383 155.566 130.445 155.06L110.201 117.502C109.454 116.133 108.987 114.63 108.825 113.079C108.663 111.528 108.809 109.96 109.256 108.466C109.704 106.972 110.442 105.581 111.429 104.374C112.417 103.167 113.633 102.167 115.009 101.433ZM182.398 78.4809C181.807 77.4672 180.857 76.7125 179.736 76.3667C178.615 76.0208 177.405 76.109 176.346 76.6137L170.504 79.7449L211.192 154.853H223.711L182.398 78.4809ZM156.315 87.4577L192.612 154.853H202.846L164.034 83.2794L156.315 87.4577ZM264.609 145.463H227.052L232.06 154.643H264.613C265.315 154.61 266.019 154.681 266.7 154.853V147.341C266.653 146.821 266.412 146.339 266.024 145.991C265.636 145.643 265.131 145.454 264.609 145.463ZM122.929 198.463V218.494H144.83C145.324 218.498 145.814 218.403 146.271 218.216C146.729 218.028 147.144 217.752 147.493 217.403C147.843 217.053 148.119 216.638 148.307 216.181C148.494 215.724 148.589 215.234 148.585 214.74V201.998C148.585 201.506 148.488 201.019 148.299 200.565C148.11 200.111 147.833 199.699 147.484 199.352C147.135 199.006 146.721 198.732 146.265 198.546C145.81 198.36 145.322 198.267 144.83 198.27H122.929V198.463ZM144.83 191.154C147.757 191.173 150.558 192.345 152.628 194.414C154.697 196.484 155.868 199.285 155.888 202.211V214.94C155.87 217.867 154.7 220.67 152.63 222.741C150.56 224.812 147.758 225.984 144.83 226.004H130.442V250C130.443 250.553 130.663 251.083 131.054 251.475C131.445 251.866 131.976 252.086 132.529 252.087H264.609C265.163 252.086 265.693 251.866 266.085 251.475C266.476 251.083 266.696 250.553 266.697 250V164.24C266.696 163.687 266.476 163.156 266.085 162.765C265.693 162.374 265.163 162.154 264.609 162.153H132.529C131.976 162.154 131.445 162.374 131.054 162.765C130.663 163.156 130.443 163.687 130.442 164.24V191.154H144.83ZM116.67 113.954L138.788 154.853H184.276L149.846 91.0024L118.547 107.906C118.015 108.167 117.542 108.535 117.157 108.985C116.772 109.436 116.483 109.96 116.307 110.526C116.131 111.092 116.073 111.688 116.135 112.278C116.198 112.867 116.379 113.438 116.67 113.954Z" fill="#DB953C" stroke="#1C1717" stroke-width="3" mask="url(#path-3-inside-1)"/>
<path d="M131.344 111.28L131.343 111.281C129.289 112.42 127.744 114.296 127.02 116.53C126.421 118.802 126.692 121.215 127.78 123.298C127.78 123.298 127.78 123.298 127.78 123.298L130.069 127.671C130.843 129.086 131.982 130.266 133.367 131.091C134.752 131.915 136.334 132.353 137.946 132.358C139.385 132.338 140.796 131.953 142.047 131.239L142.057 131.234L142.057 131.234L143.934 130.19L143.935 130.19C145.99 129.051 147.535 127.174 148.259 124.94C148.857 122.669 148.586 120.256 147.499 118.173L131.344 111.28ZM131.344 111.28L133.205 110.246C135.284 109.197 137.685 108.981 139.918 109.644C142.15 110.307 144.045 111.797 145.215 113.81L147.499 118.172L131.344 111.28ZM139.473 126.517L139.473 126.517L139.481 126.513L141.32 125.49C141.744 125.297 142.121 125.013 142.424 124.658C142.727 124.305 142.949 123.891 143.075 123.444C143.237 123.002 143.295 122.527 143.243 122.059C143.19 121.591 143.03 121.143 142.775 120.748L140.506 116.416C140.225 115.868 139.796 115.409 139.268 115.093C138.752 114.783 138.161 114.622 137.559 114.625C136.986 114.589 136.411 114.689 135.883 114.917L135.838 114.937L135.794 114.961L133.955 115.984C133.531 116.177 133.154 116.461 132.851 116.815C132.548 117.169 132.326 117.583 132.2 118.031C132.038 118.472 131.981 118.946 132.033 119.414C132.086 119.88 132.246 120.328 132.5 120.722L134.767 125.052C134.974 125.46 135.26 125.823 135.609 126.119C135.959 126.417 136.367 126.641 136.806 126.779C137.246 126.916 137.708 126.964 138.166 126.919C138.624 126.874 139.069 126.737 139.473 126.517Z" fill="#DB953C" stroke="#1C1717" stroke-width="2"/>
<path d="M231.721 221.447C230.588 222.58 230.588 224.417 231.721 225.55C232.854 226.683 234.691 226.683 235.824 225.55C236.957 224.417 236.957 222.58 235.824 221.447C234.691 220.314 232.854 220.314 231.721 221.447Z" fill="#DB953C"/>
<path d="M222.916 230.954C226.181 232.418 229.71 233.204 233.288 233.265C236.824 233.201 240.31 232.413 243.529 230.948C244.808 230.372 245.894 229.44 246.656 228.263C247.418 227.086 247.824 225.714 247.825 224.311L247.848 214.267C247.849 212.807 247.408 211.381 246.585 210.175C245.762 208.97 244.594 208.041 243.234 207.509C242.376 207.182 241.507 206.883 240.639 206.631L240.635 184.54C240.636 184.3 240.589 184.063 240.497 183.842C240.405 183.621 240.271 183.421 240.101 183.252L234.468 177.618C234.128 177.279 233.667 177.088 233.186 177.088C232.706 177.088 232.245 177.279 231.905 177.618L226.265 183.258C225.929 183.599 225.742 184.059 225.744 184.537C225.746 185.015 225.937 185.473 226.275 185.811L228.569 188.105L226.275 190.399C226.099 190.567 225.959 190.769 225.862 190.992C225.766 191.215 225.716 191.455 225.714 191.699C225.713 191.942 225.76 192.183 225.854 192.407C225.947 192.631 226.085 192.835 226.258 193.005L228.552 195.299L226.258 197.593C225.919 197.933 225.728 198.393 225.728 198.874C225.728 199.355 225.919 199.816 226.258 200.155C226.598 200.495 227.059 200.686 227.54 200.686C228.02 200.686 228.481 200.495 228.821 200.155L232.426 196.551C232.766 196.211 232.957 195.75 232.957 195.269C232.957 194.789 232.766 194.328 232.426 193.988L230.132 191.694L232.426 189.4C232.766 189.06 232.957 188.599 232.957 188.118C232.957 187.638 232.766 187.177 232.426 186.837L230.132 184.543L233.199 181.476L237.014 185.29L237.011 208.024C237.011 208.429 237.147 208.823 237.397 209.142C237.647 209.461 237.997 209.687 238.39 209.784C239.593 210.08 240.775 210.452 241.93 210.898C242.607 211.161 243.188 211.622 243.599 212.22C244.009 212.819 244.229 213.528 244.23 214.254L244.201 224.305C244.198 225.008 243.993 225.696 243.609 226.285C243.225 226.874 242.68 227.341 242.038 227.628C239.282 228.896 236.295 229.585 233.262 229.653C230.186 229.593 227.153 228.91 224.348 227.648C223.705 227.365 223.159 226.901 222.776 226.313C222.394 225.724 222.192 225.036 222.195 224.334L222.211 214.172C222.213 213.448 222.43 212.741 222.834 212.14C223.238 211.54 223.812 211.073 224.482 210.8C225.608 210.338 226.769 209.964 227.953 209.682C228.184 209.627 228.403 209.526 228.595 209.386C228.788 209.246 228.951 209.07 229.076 208.867C229.2 208.664 229.283 208.438 229.321 208.203C229.358 207.968 229.349 207.728 229.293 207.496C229.238 207.265 229.137 207.046 228.997 206.854C228.857 206.661 228.681 206.498 228.478 206.373C228.275 206.249 228.049 206.166 227.814 206.128C227.579 206.091 227.339 206.1 227.107 206.156C225.734 206.485 224.388 206.921 223.083 207.46C221.753 208.008 220.616 208.937 219.815 210.132C219.014 211.326 218.586 212.731 218.583 214.169L218.564 224.328C218.564 225.736 218.976 227.114 219.749 228.292C220.522 229.469 221.623 230.395 222.916 230.954Z" fill="#DB953C"/>
</svg>
