<svg width="399" height="351" viewBox="0 0 399 351" fill="none" xmlns="http://www.w3.org/2000/svg">
<path d="M28 118H274V351H28V118Z" fill="#F6BD72"/>
<path d="M0 0H399V341H0V0Z" fill="#1C1717"/>
<path d="M191.654 199.755C188.218 199.755 184.86 200.774 182.004 202.682C179.148 204.591 176.921 207.304 175.607 210.477C174.292 213.651 173.948 217.143 174.618 220.513C175.289 223.882 176.943 226.977 179.372 229.406C181.801 231.835 184.896 233.489 188.265 234.159C191.634 234.83 195.127 234.486 198.301 233.171C201.474 231.856 204.187 229.63 206.096 226.774C208.004 223.918 209.023 220.559 209.023 217.124C209.017 212.519 207.186 208.104 203.93 204.848C200.673 201.592 196.259 199.76 191.654 199.755ZM191.654 229.006C189.303 229.006 187.005 228.309 185.051 227.003C183.096 225.697 181.573 223.841 180.673 221.669C179.774 219.498 179.539 217.108 179.997 214.803C180.456 212.497 181.588 210.379 183.25 208.717C184.912 207.055 187.03 205.923 189.335 205.465C191.641 205.006 194.03 205.241 196.202 206.141C198.374 207.041 200.23 208.564 201.536 210.518C202.842 212.473 203.539 214.771 203.539 217.121C203.536 220.272 202.283 223.294 200.054 225.522C197.826 227.75 194.805 229.003 191.654 229.006Z" fill="#DB953C" stroke="#1C1717" stroke-width="2"/>
<path d="M154.55 180.021C154.289 180.274 154.081 180.576 153.938 180.911C153.795 181.245 153.72 181.604 153.717 181.968C153.715 182.332 153.784 182.692 153.922 183.029C154.06 183.365 154.263 183.671 154.52 183.928C154.778 184.185 155.083 184.389 155.42 184.526C155.756 184.664 156.117 184.734 156.48 184.731C156.844 184.728 157.204 184.653 157.538 184.51C157.872 184.367 158.175 184.159 158.428 183.898C167.246 175.099 179.195 170.158 191.653 170.158C204.11 170.158 216.059 175.099 224.878 183.898C225.131 184.159 225.433 184.367 225.768 184.51C226.102 184.653 226.461 184.728 226.825 184.731C227.189 184.734 227.549 184.664 227.886 184.526C228.222 184.389 228.528 184.185 228.785 183.928C229.042 183.671 229.245 183.365 229.383 183.029C229.521 182.692 229.591 182.332 229.588 181.968C229.585 181.604 229.51 181.245 229.367 180.911C229.224 180.576 229.016 180.274 228.755 180.021C218.907 170.196 205.564 164.678 191.653 164.678C177.742 164.678 164.399 170.196 154.55 180.021Z" fill="#DB953C" stroke="#1C1717"/>
<path d="M191.656 129.552C180.921 129.608 170.317 131.921 160.533 136.34C150.748 140.759 142.002 147.185 134.861 155.202C134.387 155.736 134.125 156.426 134.125 157.14C134.125 157.855 134.387 158.544 134.861 159.079C135.084 159.331 135.358 159.534 135.664 159.672C135.971 159.811 136.304 159.883 136.641 159.883C136.977 159.883 137.31 159.811 137.617 159.672C137.923 159.534 138.197 159.331 138.42 159.079C145.079 151.523 153.271 145.47 162.45 141.325C171.629 137.179 181.586 135.035 191.658 135.035C201.73 135.035 211.687 137.179 220.866 141.325C230.045 145.47 238.237 151.523 244.896 159.079C245.119 159.331 245.392 159.534 245.699 159.672C246.006 159.811 246.339 159.883 246.675 159.883C247.012 159.883 247.345 159.811 247.651 159.672C247.958 159.534 248.232 159.331 248.454 159.079C248.929 158.544 249.191 157.855 249.191 157.14C249.191 156.426 248.929 155.736 248.454 155.202C241.313 147.184 232.567 140.758 222.782 136.339C212.997 131.92 202.393 129.608 191.656 129.552Z" fill="#DB953C" stroke="#1C1717"/>
<path d="M273.248 130.379C262.884 119.057 250.277 110.015 236.23 103.83C222.182 97.6439 207 94.4494 191.651 94.4494C176.302 94.4494 161.12 97.6439 147.072 103.83C133.024 110.015 120.418 119.057 110.054 130.379C109.57 130.909 109.302 131.601 109.302 132.318C109.302 133.036 109.57 133.727 110.054 134.257C110.286 134.51 110.567 134.712 110.881 134.85C111.195 134.989 111.535 135.06 111.878 135.06C112.221 135.06 112.56 134.989 112.874 134.85C113.188 134.712 113.47 134.51 113.701 134.257C123.602 123.44 135.645 114.803 149.065 108.893C162.485 102.984 176.988 99.9319 191.651 99.9319C206.314 99.9319 220.817 102.984 234.237 108.893C247.657 114.803 259.7 123.44 269.6 134.257C269.832 134.51 270.114 134.712 270.428 134.85C270.742 134.989 271.081 135.06 271.424 135.06C271.767 135.06 272.107 134.989 272.421 134.85C272.735 134.712 273.016 134.51 273.248 134.257C273.732 133.727 274 133.036 274 132.318C274 131.601 273.732 130.909 273.248 130.379Z" fill="#DB953C" stroke="#1C1717"/>
<path d="M224.342 78.4871L224.344 78.4873C224.794 78.5914 225.186 78.8704 225.431 79.2628C225.676 79.6553 225.755 80.1291 225.651 80.58L186.736 249.141C186.632 249.593 186.352 249.984 185.96 250.229C185.567 250.475 185.093 250.554 184.641 250.45C184.19 250.346 183.799 250.067 183.553 249.674C183.308 249.281 183.228 248.807 183.333 248.356L222.248 79.7943C222.3 79.5709 222.395 79.3599 222.528 79.1732C222.661 78.9866 222.83 78.828 223.024 78.7066C223.219 78.5852 223.435 78.5033 223.662 78.4657C223.888 78.428 224.119 78.4353 224.342 78.4871Z" fill="#FF9104" stroke="#1C1717" stroke-width="2"/>
</svg>
