<svg width="399" height="351" viewBox="0 0 399 351" fill="none" xmlns="http://www.w3.org/2000/svg">
<path d="M138 118H363V351H138V118Z" fill="#F6BD72"/>
<path d="M0 0H399V341H0V0Z" fill="#1C1717"/>
<path d="M156.496 126.961C159.935 123.522 164.597 121.588 169.46 121.582H221.454C226.317 121.588 230.979 123.522 234.417 126.961C237.856 130.4 239.791 135.062 239.797 139.926V191.917C239.791 196.781 237.856 201.443 234.417 204.882C230.979 208.321 226.316 210.255 221.453 210.261H169.461C164.598 210.255 159.935 208.321 156.496 204.882C153.058 201.443 151.123 196.781 151.117 191.918V139.925C151.123 135.062 153.058 130.4 156.496 126.961ZM228.92 199.398C230.899 197.418 232.012 194.732 232.012 191.932V139.937C232.012 137.137 230.899 134.452 228.92 132.472C226.94 130.492 224.254 129.38 221.454 129.38H169.459C166.659 129.38 163.974 130.492 161.994 132.472C160.014 134.452 158.902 137.137 158.902 139.937V191.932C158.902 194.732 160.014 197.418 161.994 199.398C163.974 201.377 166.659 202.49 169.459 202.49H221.454C224.254 202.49 226.94 201.377 228.92 199.398Z" fill="#DB953C" stroke="#1C1717" stroke-width="3"/>
<mask id="path-4-inside-1" fill="white">
<path d="M282.125 146.764C283.555 146.764 284.927 146.195 285.939 145.184C286.95 144.172 287.519 142.8 287.519 141.37C287.519 139.939 286.95 138.567 285.939 137.555C284.927 136.544 283.555 135.976 282.125 135.976H264.393V122.222H282.111C283.542 122.222 284.914 121.654 285.925 120.642C286.937 119.631 287.505 118.259 287.505 116.828C287.505 115.397 286.937 114.025 285.925 113.014C284.914 112.002 283.542 111.434 282.111 111.434H263.654C262.729 108.172 260.986 105.201 258.591 102.801C256.196 100.401 253.228 98.6523 249.968 97.7205V79.2471C249.968 77.8165 249.4 76.4445 248.388 75.4329C247.377 74.4213 246.005 73.853 244.574 73.853C243.143 73.853 241.771 74.4213 240.76 75.4329C239.748 76.4445 239.18 77.8165 239.18 79.2471V96.9691H225.426V79.2471C225.426 77.8165 224.858 76.4445 223.846 75.4329C222.835 74.4213 221.463 73.853 220.032 73.853C218.602 73.853 217.23 74.4213 216.218 75.4329C215.206 76.4445 214.638 77.8165 214.638 79.2471V96.9691H200.885V79.2471C200.885 77.8165 200.316 76.4445 199.305 75.4329C198.293 74.4213 196.921 73.853 195.49 73.853C194.06 73.853 192.688 74.4213 191.676 75.4329C190.665 76.4445 190.096 77.8165 190.096 79.2471V96.9691H176.343V79.2471C176.343 77.8165 175.774 76.4445 174.763 75.4329C173.751 74.4213 172.379 73.853 170.949 73.853C169.518 73.853 168.146 74.4213 167.134 75.4329C166.123 76.4445 165.555 77.8165 165.555 79.2471V96.9691H151.801V79.2471C151.801 77.8165 151.233 76.4445 150.221 75.4329C149.21 74.4213 147.838 73.853 146.407 73.853C144.976 73.853 143.604 74.4213 142.593 75.4329C141.581 76.4445 141.013 77.8165 141.013 79.2471V97.7205C137.738 98.6387 134.754 100.38 132.343 102.779C129.933 105.178 128.177 108.154 127.242 111.424H108.769C107.338 111.424 105.966 111.992 104.955 113.004C103.943 114.015 103.375 115.387 103.375 116.818C103.375 118.248 103.943 119.62 104.955 120.632C105.966 121.644 107.338 122.212 108.769 122.212H126.491V135.966H108.769C107.338 135.966 105.966 136.534 104.955 137.545C103.943 138.557 103.375 139.929 103.375 141.36C103.375 142.79 103.943 144.162 104.955 145.174C105.966 146.185 107.338 146.754 108.769 146.754H126.491V160.507H108.769C107.338 160.507 105.966 161.076 104.955 162.087C103.943 163.099 103.375 164.471 103.375 165.901C103.375 167.332 103.943 168.704 104.955 169.716C105.966 170.727 107.338 171.295 108.769 171.295H126.491V185.049H108.769C107.338 185.049 105.966 185.617 104.955 186.629C103.943 187.641 103.375 189.013 103.375 190.443C103.375 191.874 103.943 193.246 104.955 194.257C105.966 195.269 107.338 195.837 108.769 195.837H126.491V209.591H108.769C107.338 209.591 105.966 210.159 104.955 211.171C103.943 212.182 103.375 213.554 103.375 214.985C103.375 216.415 103.943 217.787 104.955 218.799C105.966 219.811 107.338 220.379 108.769 220.379H127.239C128.16 223.651 129.903 226.633 132.302 229.041C134.702 231.449 137.677 233.203 140.946 234.136V252.606C140.946 254.037 141.514 255.409 142.526 256.42C143.537 257.432 144.909 258 146.34 258C147.77 258 149.142 257.432 150.154 256.42C151.166 255.409 151.734 254.037 151.734 252.606V234.871H165.488V252.589C165.488 254.02 166.056 255.392 167.067 256.403C168.079 257.415 169.451 257.983 170.882 257.983C172.312 257.983 173.684 257.415 174.696 256.403C175.707 255.392 176.276 254.02 176.276 252.589V234.871H190.029V252.589C190.029 254.02 190.598 255.392 191.609 256.403C192.621 257.415 193.993 257.983 195.423 257.983C196.854 257.983 198.226 257.415 199.238 256.403C200.249 255.392 200.817 254.02 200.817 252.589V234.871H214.571V252.589C214.571 254.02 215.139 255.392 216.151 256.403C217.162 257.415 218.534 257.983 219.965 257.983C221.396 257.983 222.768 257.415 223.779 256.403C224.791 255.392 225.359 254.02 225.359 252.589V234.871H239.113V252.589C239.113 254.02 239.681 255.392 240.693 256.403C241.704 257.415 243.076 257.983 244.507 257.983C245.937 257.983 247.309 257.415 248.321 256.403C249.333 255.392 249.901 254.02 249.901 252.589V234.136C253.171 233.216 256.151 231.476 258.558 229.079C260.965 226.683 262.72 223.711 263.654 220.446H282.125C283.555 220.446 284.927 219.878 285.939 218.866C286.95 217.855 287.519 216.483 287.519 215.052C287.519 213.621 286.95 212.249 285.939 211.238C284.927 210.226 283.555 209.658 282.125 209.658H264.393V195.904H282.111C283.542 195.904 284.914 195.336 285.925 194.324C286.937 193.313 287.505 191.941 287.505 190.51C287.505 189.08 286.937 187.708 285.925 186.696C284.914 185.684 283.542 185.116 282.111 185.116H264.393V171.363H282.111C283.542 171.363 284.914 170.794 285.925 169.783C286.937 168.771 287.505 167.399 287.505 165.968C287.505 164.538 286.937 163.166 285.925 162.154C284.914 161.143 283.542 160.574 282.111 160.574H264.393V146.821L282.125 146.764ZM244.554 224.096H146.33C145.14 224.096 143.963 223.861 142.864 223.406C141.765 222.951 140.766 222.284 139.925 221.443C139.084 220.602 138.417 219.603 137.962 218.505C137.507 217.406 137.273 216.228 137.273 215.039V116.808C137.273 114.406 138.227 112.102 139.925 110.403C141.624 108.705 143.928 107.751 146.33 107.751H244.567C246.969 107.751 249.273 108.705 250.972 110.403C252.67 112.102 253.624 114.406 253.624 116.808V215.045C253.624 217.447 252.67 219.751 250.972 221.45C249.273 223.148 246.969 224.102 244.567 224.102L244.554 224.096Z"/>
</mask>
<path d="M282.125 146.764C283.555 146.764 284.927 146.195 285.939 145.184C286.95 144.172 287.519 142.8 287.519 141.37C287.519 139.939 286.95 138.567 285.939 137.555C284.927 136.544 283.555 135.976 282.125 135.976H264.393V122.222H282.111C283.542 122.222 284.914 121.654 285.925 120.642C286.937 119.631 287.505 118.259 287.505 116.828C287.505 115.397 286.937 114.025 285.925 113.014C284.914 112.002 283.542 111.434 282.111 111.434H263.654C262.729 108.172 260.986 105.201 258.591 102.801C256.196 100.401 253.228 98.6523 249.968 97.7205V79.2471C249.968 77.8165 249.4 76.4445 248.388 75.4329C247.377 74.4213 246.005 73.853 244.574 73.853C243.143 73.853 241.771 74.4213 240.76 75.4329C239.748 76.4445 239.18 77.8165 239.18 79.2471V96.9691H225.426V79.2471C225.426 77.8165 224.858 76.4445 223.846 75.4329C222.835 74.4213 221.463 73.853 220.032 73.853C218.602 73.853 217.23 74.4213 216.218 75.4329C215.206 76.4445 214.638 77.8165 214.638 79.2471V96.9691H200.885V79.2471C200.885 77.8165 200.316 76.4445 199.305 75.4329C198.293 74.4213 196.921 73.853 195.49 73.853C194.06 73.853 192.688 74.4213 191.676 75.4329C190.665 76.4445 190.096 77.8165 190.096 79.2471V96.9691H176.343V79.2471C176.343 77.8165 175.774 76.4445 174.763 75.4329C173.751 74.4213 172.379 73.853 170.949 73.853C169.518 73.853 168.146 74.4213 167.134 75.4329C166.123 76.4445 165.555 77.8165 165.555 79.2471V96.9691H151.801V79.2471C151.801 77.8165 151.233 76.4445 150.221 75.4329C149.21 74.4213 147.838 73.853 146.407 73.853C144.976 73.853 143.604 74.4213 142.593 75.4329C141.581 76.4445 141.013 77.8165 141.013 79.2471V97.7205C137.738 98.6387 134.754 100.38 132.343 102.779C129.933 105.178 128.177 108.154 127.242 111.424H108.769C107.338 111.424 105.966 111.992 104.955 113.004C103.943 114.015 103.375 115.387 103.375 116.818C103.375 118.248 103.943 119.62 104.955 120.632C105.966 121.644 107.338 122.212 108.769 122.212H126.491V135.966H108.769C107.338 135.966 105.966 136.534 104.955 137.545C103.943 138.557 103.375 139.929 103.375 141.36C103.375 142.79 103.943 144.162 104.955 145.174C105.966 146.185 107.338 146.754 108.769 146.754H126.491V160.507H108.769C107.338 160.507 105.966 161.076 104.955 162.087C103.943 163.099 103.375 164.471 103.375 165.901C103.375 167.332 103.943 168.704 104.955 169.716C105.966 170.727 107.338 171.295 108.769 171.295H126.491V185.049H108.769C107.338 185.049 105.966 185.617 104.955 186.629C103.943 187.641 103.375 189.013 103.375 190.443C103.375 191.874 103.943 193.246 104.955 194.257C105.966 195.269 107.338 195.837 108.769 195.837H126.491V209.591H108.769C107.338 209.591 105.966 210.159 104.955 211.171C103.943 212.182 103.375 213.554 103.375 214.985C103.375 216.415 103.943 217.787 104.955 218.799C105.966 219.811 107.338 220.379 108.769 220.379H127.239C128.16 223.651 129.903 226.633 132.302 229.041C134.702 231.449 137.677 233.203 140.946 234.136V252.606C140.946 254.037 141.514 255.409 142.526 256.42C143.537 257.432 144.909 258 146.34 258C147.77 258 149.142 257.432 150.154 256.42C151.166 255.409 151.734 254.037 151.734 252.606V234.871H165.488V252.589C165.488 254.02 166.056 255.392 167.067 256.403C168.079 257.415 169.451 257.983 170.882 257.983C172.312 257.983 173.684 257.415 174.696 256.403C175.707 255.392 176.276 254.02 176.276 252.589V234.871H190.029V252.589C190.029 254.02 190.598 255.392 191.609 256.403C192.621 257.415 193.993 257.983 195.423 257.983C196.854 257.983 198.226 257.415 199.238 256.403C200.249 255.392 200.817 254.02 200.817 252.589V234.871H214.571V252.589C214.571 254.02 215.139 255.392 216.151 256.403C217.162 257.415 218.534 257.983 219.965 257.983C221.396 257.983 222.768 257.415 223.779 256.403C224.791 255.392 225.359 254.02 225.359 252.589V234.871H239.113V252.589C239.113 254.02 239.681 255.392 240.693 256.403C241.704 257.415 243.076 257.983 244.507 257.983C245.937 257.983 247.309 257.415 248.321 256.403C249.333 255.392 249.901 254.02 249.901 252.589V234.136C253.171 233.216 256.151 231.476 258.558 229.079C260.965 226.683 262.72 223.711 263.654 220.446H282.125C283.555 220.446 284.927 219.878 285.939 218.866C286.95 217.855 287.519 216.483 287.519 215.052C287.519 213.621 286.95 212.249 285.939 211.238C284.927 210.226 283.555 209.658 282.125 209.658H264.393V195.904H282.111C283.542 195.904 284.914 195.336 285.925 194.324C286.937 193.313 287.505 191.941 287.505 190.51C287.505 189.08 286.937 187.708 285.925 186.696C284.914 185.684 283.542 185.116 282.111 185.116H264.393V171.363H282.111C283.542 171.363 284.914 170.794 285.925 169.783C286.937 168.771 287.505 167.399 287.505 165.968C287.505 164.538 286.937 163.166 285.925 162.154C284.914 161.143 283.542 160.574 282.111 160.574H264.393V146.821L282.125 146.764ZM244.554 224.096H146.33C145.14 224.096 143.963 223.861 142.864 223.406C141.765 222.951 140.766 222.284 139.925 221.443C139.084 220.602 138.417 219.603 137.962 218.505C137.507 217.406 137.273 216.228 137.273 215.039V116.808C137.273 114.406 138.227 112.102 139.925 110.403C141.624 108.705 143.928 107.751 146.33 107.751H244.567C246.969 107.751 249.273 108.705 250.972 110.403C252.67 112.102 253.624 114.406 253.624 116.808V215.045C253.624 217.447 252.67 219.751 250.972 221.45C249.273 223.148 246.969 224.102 244.567 224.102L244.554 224.096Z" fill="#DB953C" stroke="#1C1717" stroke-width="6" mask="url(#path-4-inside-1)"/>
<path d="M204.827 157.623H204.223V153.272C204.178 150.952 203.225 148.743 201.568 147.119C199.912 145.495 197.685 144.585 195.365 144.585C193.045 144.585 190.818 145.495 189.162 147.119C187.506 148.743 186.553 150.952 186.508 153.272V157.633H185.911C185.074 157.634 184.271 157.966 183.679 158.558C183.088 159.15 182.755 159.952 182.754 160.789V177.897C182.755 178.734 183.088 179.537 183.679 180.128C184.271 180.72 185.074 181.053 185.911 181.054H204.827C205.664 181.053 206.466 180.72 207.058 180.128C207.65 179.537 207.982 178.734 207.983 177.897V160.789C207.984 160.374 207.903 159.963 207.745 159.579C207.587 159.195 207.355 158.846 207.061 158.552C206.768 158.258 206.42 158.024 206.037 157.865C205.653 157.705 205.242 157.623 204.827 157.623ZM189.218 153.262C189.218 151.63 189.866 150.065 191.02 148.911C192.174 147.758 193.739 147.109 195.37 147.109C197.002 147.109 198.567 147.758 199.721 148.911C200.874 150.065 201.523 151.63 201.523 153.262V157.623H189.211L189.218 153.262ZM205.276 177.874C205.274 177.993 205.227 178.106 205.143 178.19C205.059 178.274 204.945 178.322 204.827 178.323H185.911C185.792 178.322 185.679 178.274 185.595 178.19C185.511 178.106 185.463 177.993 185.461 177.874V160.766C185.463 160.647 185.511 160.534 185.595 160.45C185.679 160.366 185.792 160.318 185.911 160.316H204.827C204.945 160.318 205.059 160.366 205.143 160.45C205.227 160.534 205.274 160.647 205.276 160.766V177.874Z" fill="#DB953C"/>
<path d="M195.364 165.392C195.008 165.392 194.667 165.533 194.415 165.785C194.163 166.036 194.022 166.377 194.022 166.733V171.913C194.022 172.271 194.164 172.615 194.418 172.869C194.671 173.122 195.015 173.265 195.374 173.265C195.732 173.265 196.076 173.122 196.33 172.869C196.583 172.615 196.726 172.271 196.726 171.913V166.733C196.726 166.555 196.69 166.379 196.622 166.215C196.553 166.051 196.452 165.902 196.326 165.777C196.199 165.652 196.049 165.554 195.883 165.488C195.718 165.422 195.542 165.389 195.364 165.392Z" fill="#DB953C"/>
</svg>
